<svg width="156" height="96" viewBox="0 0 156 96" fill="none" xmlns="http://www.w3.org/2000/svg">
<mask id="path-1-inside-1_108_43" fill="white">
<path d="M71.29 0H72.186L73.418 0.336L74.65 1.008L76.106 2.352L77.45 4.032L78.682 6.048L79.69 7.952L80.922 11.088L81.594 13.216L82.154 15.904L82.602 19.264V23.744L82.154 27.776L81.594 30.8L80.81 33.712L79.69 37.072L79.018 38.752L78.794 39.536L79.354 39.312L80.474 37.744L81.258 36.4L82.266 34.832L83.61 32.592L84.842 30.464L86.1861 28L87.642 24.864L88.314 22.848L88.874 20.272L89.21 17.248V13.328L88.538 6.272V5.264L88.986 4.032L89.7701 3.36L90.554 3.136L91.786 3.248L92.682 3.696L93.578 4.592L94.698 6.496L95.818 9.184L96.602 11.872L97.162 14.56L97.722 18.704L97.834 20.048V23.296L97.274 26.88L96.602 29.344L95.93 31.136L94.698 33.824L93.354 36.288L92.01 38.416L91.226 39.648L89.434 42.224L88.538 43.568L87.642 44.576L87.418 45.136L87.53 45.36L88.314 45.248L90.666 44.352L92.458 43.456L94.362 42.336L96.602 40.656L98.282 39.088L99.066 38.192L100.41 36.512L101.306 35.28L102.314 34.048L103.434 33.04L104.554 32.48H105.45L106.122 32.816L106.906 33.6L107.354 34.608L107.466 35.28V37.296L107.13 38.64L106.346 40.432L105.226 42.224L103.77 43.904L102.762 44.912L101.866 45.696L100.634 46.704L98.73 47.936L97.05 48.944L93.354 50.848L91.786 51.968L90.778 53.088L89.882 54.768L89.434 56.896L89.322 57.792L89.2181 59.364V60.364L89.3368 61.6497C89.4011 62.3465 89.5868 63.0266 89.8855 63.6594L89.9228 63.7383C90.1141 64.1437 90.4361 64.473 90.837 64.6734L91.2181 64.864L104.106 65.296L109.482 65.856H110.49L113.738 66.416L117.098 66.976L120.122 67.76L123.706 68.656L126.842 69.552L130.314 70.784L131.658 71.232L135.578 72.688L138.378 73.92L140.506 75.04L144.65 76.944L145.098 77.28L147.226 78.512L149.578 79.968L152.042 81.536L153.946 82.88L154.954 83.664L155.514 84.112V84.336L154.394 84L152.154 82.992L145.098 80.416L140.394 78.848L121.802 74.144L119.338 73.696L113.738 72.912L113.718 72.864L110.378 72.464H100.746L98.17 72.688L94.698 73.584L91.226 74.48L89.546 75.04L87.754 75.824L86.522 76.608L85.178 77.504L83.834 79.296L83.05 80.976L82.378 82.992L82.266 83.664V86.8L82.7141 88.704L83.498 90.832L84.394 92.624L85.738 94.64L86.298 95.536V95.76L85.514 95.872L64.122 95.76L64.01 95.312L64.794 92.512L65.578 89.04L66.138 85.12L66.25 84.112V78.624L66.026 76.384L65.578 74.144L64.458 70.224L62.666 66.752L61.434 65.296L60.426 64.064L59.082 62.832L57.29 61.488L55.274 60.256L52.922 59.136L50.906 58.464L48.106 57.68L46.874 57.232L43.29 56.672H37.69L35.114 57.008L32.09 57.68L28.17 58.8L25.37 59.584L21.338 60.368L18.202 60.816L16.41 60.928H15.178L12.378 60.704L9.69004 60.032L8.34604 59.472L7.33804 58.8L7.22604 58.352L8.01004 57.68L9.35404 57.008L11.146 56.448L14.282 55.776L15.402 55.664V54.992L14.17 54.88H10.81L8.45804 55.216L6.33004 55.776L3.41804 56.784L1.62604 57.568L0.618044 58.016L0.170044 57.904V56.448L0.730044 55.104L1.51404 53.984L3.08204 52.416L4.87404 51.072L7.22604 49.616L9.13004 48.608L11.706 47.6L14.73 46.816L17.53 46.256L21.002 45.92H27.162L31.754 46.256L36.122 46.816L39.706 47.376L44.074 48.272L49.898 49.728L52.362 50.288L52.026 49.504L50.458 48.608L47.098 46.368L44.298 44.576L42.058 43.232L39.594 41.776L37.018 40.32L34.554 39.088L31.642 37.968L28.394 37.072L25.93 36.624L23.242 36.4L21.226 36.288L17.194 36.176L15.29 35.952L13.61 35.28L12.49 34.608L11.706 33.824L11.034 32.704L10.81 31.92V30.912L11.258 29.792L12.042 28.784L13.162 27.888L14.73 26.992L16.858 26.208L19.098 25.76L21.114 25.536H24.474L28.618 25.984L30.858 26.432L33.77 27.216L36.234 28.112L39.482 29.456L42.17 30.8L43.962 31.92L45.53 32.928L47.322 34.16L49.226 35.616L50.346 36.512L51.466 37.52L52.362 38.304L53.482 39.312L54.266 40.096L55.162 40.88L56.394 42.224L57.514 43.456L58.186 44.352L58.858 44.576L58.522 43.232L57.29 40.208L56.394 38.304L54.938 35.728L54.042 34.16L52.81 32.368L51.466 30.576L50.122 29.008L49.114 27.888L47.098 25.424L45.978 23.744L44.522 20.944L43.626 18.704L43.066 16.688L42.954 15.792V14.448L43.29 12.88L43.962 11.648L44.746 10.864L46.09 10.192L46.986 9.968H49.45L51.13 10.416L52.25 10.976L53.594 11.872L54.714 12.768L56.394 14.336L57.514 15.568L58.858 17.36L60.314 19.712L61.658 22.288L63.226 25.872L64.346 28.896L65.242 31.584L66.138 34.832L67.034 38.528L67.37 40.544L67.594 43.12L68.042 43.008L68.826 41.44L69.498 38.864L70.058 35.28L70.17 33.488V27.328L69.946 23.632L69.386 18.256L68.378 10.752L67.93 7.616L67.818 6.496V4.48L68.154 2.912L68.714 1.792L69.722 0.672L70.842 0.112L71.29 0ZM99.7181 65.1489L104.106 65.296L109.482 65.856H110.49L103.77 65.2714L99.7181 65.1489Z"/>
</mask>
<path d="M71.29 0H72.186L73.418 0.336L74.65 1.008L76.106 2.352L77.45 4.032L78.682 6.048L79.69 7.952L80.922 11.088L81.594 13.216L82.154 15.904L82.602 19.264V23.744L82.154 27.776L81.594 30.8L80.81 33.712L79.69 37.072L79.018 38.752L78.794 39.536L79.354 39.312L80.474 37.744L81.258 36.4L82.266 34.832L83.61 32.592L84.842 30.464L86.1861 28L87.642 24.864L88.314 22.848L88.874 20.272L89.21 17.248V13.328L88.538 6.272V5.264L88.986 4.032L89.7701 3.36L90.554 3.136L91.786 3.248L92.682 3.696L93.578 4.592L94.698 6.496L95.818 9.184L96.602 11.872L97.162 14.56L97.722 18.704L97.834 20.048V23.296L97.274 26.88L96.602 29.344L95.93 31.136L94.698 33.824L93.354 36.288L92.01 38.416L91.226 39.648L89.434 42.224L88.538 43.568L87.642 44.576L87.418 45.136L87.53 45.36L88.314 45.248L90.666 44.352L92.458 43.456L94.362 42.336L96.602 40.656L98.282 39.088L99.066 38.192L100.41 36.512L101.306 35.28L102.314 34.048L103.434 33.04L104.554 32.48H105.45L106.122 32.816L106.906 33.6L107.354 34.608L107.466 35.28V37.296L107.13 38.64L106.346 40.432L105.226 42.224L103.77 43.904L102.762 44.912L101.866 45.696L100.634 46.704L98.73 47.936L97.05 48.944L93.354 50.848L91.786 51.968L90.778 53.088L89.882 54.768L89.434 56.896L89.322 57.792L89.2181 59.364V60.364L89.3368 61.6497C89.4011 62.3465 89.5868 63.0266 89.8855 63.6594L89.9228 63.7383C90.1141 64.1437 90.4361 64.473 90.837 64.6734L91.2181 64.864L104.106 65.296L109.482 65.856H110.49L113.738 66.416L117.098 66.976L120.122 67.76L123.706 68.656L126.842 69.552L130.314 70.784L131.658 71.232L135.578 72.688L138.378 73.92L140.506 75.04L144.65 76.944L145.098 77.28L147.226 78.512L149.578 79.968L152.042 81.536L153.946 82.88L154.954 83.664L155.514 84.112V84.336L154.394 84L152.154 82.992L145.098 80.416L140.394 78.848L121.802 74.144L119.338 73.696L113.738 72.912L113.718 72.864L110.378 72.464H100.746L98.17 72.688L94.698 73.584L91.226 74.48L89.546 75.04L87.754 75.824L86.522 76.608L85.178 77.504L83.834 79.296L83.05 80.976L82.378 82.992L82.266 83.664V86.8L82.7141 88.704L83.498 90.832L84.394 92.624L85.738 94.64L86.298 95.536V95.76L85.514 95.872L64.122 95.76L64.01 95.312L64.794 92.512L65.578 89.04L66.138 85.12L66.25 84.112V78.624L66.026 76.384L65.578 74.144L64.458 70.224L62.666 66.752L61.434 65.296L60.426 64.064L59.082 62.832L57.29 61.488L55.274 60.256L52.922 59.136L50.906 58.464L48.106 57.68L46.874 57.232L43.29 56.672H37.69L35.114 57.008L32.09 57.68L28.17 58.8L25.37 59.584L21.338 60.368L18.202 60.816L16.41 60.928H15.178L12.378 60.704L9.69004 60.032L8.34604 59.472L7.33804 58.8L7.22604 58.352L8.01004 57.68L9.35404 57.008L11.146 56.448L14.282 55.776L15.402 55.664V54.992L14.17 54.88H10.81L8.45804 55.216L6.33004 55.776L3.41804 56.784L1.62604 57.568L0.618044 58.016L0.170044 57.904V56.448L0.730044 55.104L1.51404 53.984L3.08204 52.416L4.87404 51.072L7.22604 49.616L9.13004 48.608L11.706 47.6L14.73 46.816L17.53 46.256L21.002 45.92H27.162L31.754 46.256L36.122 46.816L39.706 47.376L44.074 48.272L49.898 49.728L52.362 50.288L52.026 49.504L50.458 48.608L47.098 46.368L44.298 44.576L42.058 43.232L39.594 41.776L37.018 40.32L34.554 39.088L31.642 37.968L28.394 37.072L25.93 36.624L23.242 36.4L21.226 36.288L17.194 36.176L15.29 35.952L13.61 35.28L12.49 34.608L11.706 33.824L11.034 32.704L10.81 31.92V30.912L11.258 29.792L12.042 28.784L13.162 27.888L14.73 26.992L16.858 26.208L19.098 25.76L21.114 25.536H24.474L28.618 25.984L30.858 26.432L33.77 27.216L36.234 28.112L39.482 29.456L42.17 30.8L43.962 31.92L45.53 32.928L47.322 34.16L49.226 35.616L50.346 36.512L51.466 37.52L52.362 38.304L53.482 39.312L54.266 40.096L55.162 40.88L56.394 42.224L57.514 43.456L58.186 44.352L58.858 44.576L58.522 43.232L57.29 40.208L56.394 38.304L54.938 35.728L54.042 34.16L52.81 32.368L51.466 30.576L50.122 29.008L49.114 27.888L47.098 25.424L45.978 23.744L44.522 20.944L43.626 18.704L43.066 16.688L42.954 15.792V14.448L43.29 12.88L43.962 11.648L44.746 10.864L46.09 10.192L46.986 9.968H49.45L51.13 10.416L52.25 10.976L53.594 11.872L54.714 12.768L56.394 14.336L57.514 15.568L58.858 17.36L60.314 19.712L61.658 22.288L63.226 25.872L64.346 28.896L65.242 31.584L66.138 34.832L67.034 38.528L67.37 40.544L67.594 43.12L68.042 43.008L68.826 41.44L69.498 38.864L70.058 35.28L70.17 33.488V27.328L69.946 23.632L69.386 18.256L68.378 10.752L67.93 7.616L67.818 6.496V4.48L68.154 2.912L68.714 1.792L69.722 0.672L70.842 0.112L71.29 0ZM99.7181 65.1489L104.106 65.296L109.482 65.856H110.49L103.77 65.2714L99.7181 65.1489Z" fill="#FBA520"/>
<path d="M109.482 65.856L109.456 66.1047L109.469 66.106H109.482V65.856ZM91.2181 64.864L91.2098 65.1139L99.7098 65.3988L99.7181 65.1489L99.7265 64.8991L91.2265 64.6142L91.2181 64.864ZM104.106 65.296L104.08 65.5447L109.456 66.1047L109.482 65.856L109.508 65.6073L104.132 65.0474L104.106 65.296ZM109.482 65.856V66.106H110.49V65.856V65.606H109.482V65.856ZM71.29 0V-0.5H71.2285L71.1688 -0.485071L71.29 0ZM72.186 0L72.3176 -0.482382L72.253 -0.5H72.186V0ZM73.418 0.336L73.6575 -0.102948L73.6061 -0.130979L73.5496 -0.146382L73.418 0.336ZM74.65 1.008L74.9892 0.640598L74.9438 0.59866L74.8895 0.569052L74.65 1.008ZM76.106 2.352L76.4965 2.03965L76.4729 2.01019L76.4452 1.9846L76.106 2.352ZM77.45 4.032L77.8767 3.77127L77.8602 3.74432L77.8405 3.71965L77.45 4.032ZM78.682 6.048L79.1239 5.81406L79.1167 5.80043L79.1087 5.78728L78.682 6.048ZM79.69 7.952L80.1554 7.76917L80.1451 7.74295L80.1319 7.71806L79.69 7.952ZM80.922 11.088L81.3988 10.9374L81.3937 10.9211L81.3874 10.9052L80.922 11.088ZM81.594 13.216L82.0835 13.114L82.0784 13.0894L82.0708 13.0654L81.594 13.216ZM82.154 15.904L82.6497 15.8379L82.6473 15.8199L82.6435 15.802L82.154 15.904ZM82.602 19.264H83.102V19.2308L83.0977 19.1979L82.602 19.264ZM82.602 23.744L83.099 23.7992L83.102 23.7717V23.744H82.602ZM82.154 27.776L82.6457 27.867L82.649 27.8492L82.651 27.8312L82.154 27.776ZM81.594 30.8L82.0769 30.93L82.0821 30.9107L82.0857 30.891L81.594 30.8ZM80.81 33.712L81.2844 33.8701L81.289 33.8562L81.2929 33.842L80.81 33.712ZM79.69 37.072L80.1543 37.2577L80.1597 37.2441L80.1644 37.2301L79.69 37.072ZM79.018 38.752L78.5538 38.5663L78.5443 38.5901L78.5373 38.6146L79.018 38.752ZM78.794 39.536L78.3133 39.3986L78.0332 40.3788L78.9797 40.0002L78.794 39.536ZM79.354 39.312L79.5397 39.7762L79.6758 39.7218L79.7609 39.6026L79.354 39.312ZM80.474 37.744L80.8809 38.0346L80.8943 38.0159L80.9059 37.9959L80.474 37.744ZM81.258 36.4L80.8375 36.1296L80.8316 36.1387L80.8262 36.1481L81.258 36.4ZM82.266 34.832L82.6866 35.1024L82.6908 35.0959L82.6948 35.0892L82.266 34.832ZM83.61 32.592L84.0388 32.8493L84.0428 32.8425L83.61 32.592ZM84.842 30.464L85.2749 30.7146L85.281 30.7034L84.842 30.464ZM86.1861 28L86.625 28.2394L86.6327 28.2252L86.6396 28.2106L86.1861 28ZM87.642 24.864L88.0955 25.0746L88.1074 25.0489L88.1164 25.0221L87.642 24.864ZM88.314 22.848L88.7884 23.0061L88.7969 22.9806L88.8026 22.9542L88.314 22.848ZM88.874 20.272L89.3626 20.3782L89.3681 20.3529L89.371 20.3272L88.874 20.272ZM89.21 17.248L89.707 17.3032L89.71 17.2757V17.248H89.21ZM89.21 13.328H89.71V13.3042L89.7078 13.2806L89.21 13.328ZM88.538 6.272H88.038V6.29576L88.0403 6.3194L88.538 6.272ZM88.538 5.264L88.0682 5.09313L88.038 5.17591V5.264H88.538ZM88.986 4.032L88.6607 3.65237L88.561 3.73778L88.5161 3.86113L88.986 4.032ZM89.7701 3.36L89.6327 2.87924L89.5276 2.90926L89.4447 2.98037L89.7701 3.36ZM90.554 3.136L90.5993 2.63805L90.5064 2.62961L90.4167 2.65524L90.554 3.136ZM91.786 3.248L92.0097 2.80079L91.9253 2.75859L91.8313 2.75005L91.786 3.248ZM92.682 3.696L93.0356 3.34245L92.9782 3.28507L92.9057 3.24879L92.682 3.696ZM93.578 4.592L94.009 4.33849L93.9767 4.28353L93.9316 4.23845L93.578 4.592ZM94.698 6.496L95.1596 6.30369L95.1464 6.27204L95.129 6.24249L94.698 6.496ZM95.818 9.184L96.298 9.044L96.2903 9.01733L96.2796 8.99169L95.818 9.184ZM96.602 11.872L97.0915 11.77L97.0875 11.7508L97.082 11.732L96.602 11.872ZM97.162 14.56L97.6575 14.493L97.6552 14.4754L97.6515 14.458L97.162 14.56ZM97.722 18.704L98.2203 18.6625L98.2193 18.6497L98.2175 18.637L97.722 18.704ZM97.834 20.048H98.334V20.0272L98.3323 20.0065L97.834 20.048ZM97.834 23.296L98.3281 23.3732L98.334 23.3348V23.296H97.834ZM97.274 26.88L97.7564 27.0116L97.7638 26.9847L97.7681 26.9572L97.274 26.88ZM96.602 29.344L97.0702 29.5196L97.0783 29.4979L97.0844 29.4756L96.602 29.344ZM95.93 31.136L96.3846 31.3443L96.392 31.3282L96.3982 31.3116L95.93 31.136ZM94.698 33.824L95.137 34.0634L95.1453 34.0481L95.1526 34.0323L94.698 33.824ZM93.354 36.288L93.7768 36.555L93.7853 36.5415L93.793 36.5274L93.354 36.288ZM92.01 38.416L92.4319 38.6844L92.4328 38.683L92.01 38.416ZM91.226 39.648L91.6365 39.9335L91.6424 39.9251L91.6479 39.9164L91.226 39.648ZM89.434 42.224L89.0235 41.9384L89.018 41.9467L89.434 42.224ZM88.538 43.568L88.9118 43.9002L88.9348 43.8742L88.9541 43.8454L88.538 43.568ZM87.642 44.576L87.2683 44.2438L87.2103 44.3091L87.1778 44.3903L87.642 44.576ZM87.418 45.136L86.9538 44.9503L86.8704 45.1588L86.9708 45.3596L87.418 45.136ZM87.53 45.36L87.0828 45.5836L87.244 45.9059L87.6008 45.855L87.53 45.36ZM88.314 45.248L88.3848 45.743L88.4399 45.7351L88.492 45.7152L88.314 45.248ZM90.666 44.352L90.844 44.8192L90.8673 44.8104L90.8897 44.7992L90.666 44.352ZM92.458 43.456L92.6817 43.9032L92.6969 43.8956L92.7116 43.887L92.458 43.456ZM94.362 42.336L94.6156 42.767L94.6397 42.7528L94.662 42.736L94.362 42.336ZM96.602 40.656L96.902 41.056L96.9235 41.0399L96.9432 41.0215L96.602 40.656ZM98.282 39.088L98.6232 39.4535L98.6417 39.4363L98.6583 39.4173L98.282 39.088ZM99.066 38.192L99.4423 38.5213L99.4496 38.513L99.4565 38.5043L99.066 38.192ZM100.41 36.512L100.8 36.8243L100.808 36.8154L100.814 36.8061L100.41 36.512ZM101.306 35.28L100.919 34.9634L100.91 34.9744L100.902 34.9859L101.306 35.28ZM102.314 34.048L101.98 33.6764L101.951 33.7019L101.927 33.7314L102.314 34.048ZM103.434 33.04L103.21 32.5928L103.15 32.6231L103.1 32.6684L103.434 33.04ZM104.554 32.48V31.98H104.436L104.33 32.0328L104.554 32.48ZM105.45 32.48L105.674 32.0328L105.568 31.98H105.45V32.48ZM106.122 32.816L106.476 32.4624L106.418 32.4051L106.346 32.3688L106.122 32.816ZM106.906 33.6L107.363 33.3969L107.325 33.3121L107.26 33.2464L106.906 33.6ZM107.354 34.608L107.847 34.5258L107.837 34.4631L107.811 34.4049L107.354 34.608ZM107.466 35.28H107.966V35.2386L107.959 35.1978L107.466 35.28ZM107.466 37.296L107.951 37.4173L107.966 37.3576V37.296H107.466ZM107.13 38.64L107.588 38.8404L107.605 38.802L107.615 38.7613L107.13 38.64ZM106.346 40.432L106.77 40.697L106.789 40.666L106.804 40.6324L106.346 40.432ZM105.226 42.224L105.604 42.5515L105.629 42.522L105.65 42.489L105.226 42.224ZM103.77 43.904L104.124 44.2576L104.136 44.2449L104.148 44.2315L103.77 43.904ZM102.762 44.912L103.091 45.2883L103.104 45.2773L103.116 45.2656L102.762 44.912ZM101.866 45.696L102.183 46.083L102.189 46.0777L102.195 46.0723L101.866 45.696ZM100.634 46.704L100.906 47.1238L100.929 47.1086L100.951 47.091L100.634 46.704ZM98.73 47.936L98.9873 48.3647L98.9946 48.3604L99.0017 48.3558L98.73 47.936ZM97.05 48.944L97.279 49.3885L97.2934 49.3811L97.3073 49.3727L97.05 48.944ZM93.354 50.848L93.1251 50.4035L93.0929 50.4201L93.0634 50.4411L93.354 50.848ZM91.786 51.968L91.4954 51.5611L91.451 51.5929L91.4144 51.6335L91.786 51.968ZM90.778 53.088L90.4064 52.7535L90.3656 52.7989L90.3369 52.8527L90.778 53.088ZM89.882 54.768L89.4409 54.5327L89.4074 54.5954L89.3928 54.665L89.882 54.768ZM89.434 56.896L88.9448 56.793L88.9405 56.8133L88.9379 56.834L89.434 56.896ZM89.322 57.792L88.8259 57.73L88.8241 57.7445L88.8231 57.759L89.322 57.792ZM110.49 65.856L110.575 65.3633L110.554 65.3597L110.533 65.3579L110.49 65.856ZM113.738 66.416L113.653 66.9087L113.656 66.9092L113.738 66.416ZM117.098 66.976L117.224 66.492L117.202 66.4864L117.18 66.4828L117.098 66.976ZM120.122 67.76L119.997 68.244L120.001 68.2451L120.122 67.76ZM123.706 68.656L123.843 68.1752L123.835 68.173L123.827 68.1709L123.706 68.656ZM126.842 69.552L127.009 69.0808L126.994 69.0755L126.979 69.0712L126.842 69.552ZM130.314 70.784L130.147 71.2553L130.156 71.2583L130.314 70.784ZM131.658 71.232L131.832 70.7633L131.824 70.7603L131.816 70.7577L131.658 71.232ZM135.578 72.688L135.779 72.2303L135.766 72.2244L135.752 72.2193L135.578 72.688ZM138.378 73.92L138.611 73.4775L138.595 73.4694L138.579 73.4623L138.378 73.92ZM140.506 75.04L140.273 75.4825L140.285 75.4887L140.297 75.4943L140.506 75.04ZM144.65 76.944L144.95 76.544L144.907 76.512L144.859 76.4897L144.65 76.944ZM145.098 77.28L144.798 77.68L144.822 77.6978L144.848 77.7127L145.098 77.28ZM147.226 78.512L147.489 78.0869L147.483 78.083L147.477 78.0793L147.226 78.512ZM149.578 79.968L149.847 79.5461L149.841 79.5429L149.578 79.968ZM152.042 81.536L152.33 81.1275L152.321 81.1206L152.31 81.1142L152.042 81.536ZM153.946 82.88L154.253 82.4853L154.244 82.4782L154.234 82.4715L153.946 82.88ZM154.954 83.664L155.266 83.2735L155.261 83.2693L154.954 83.664ZM155.514 84.112H156.014V83.8717L155.826 83.7216L155.514 84.112ZM155.514 84.336L155.37 84.8149L156.014 85.008V84.336H155.514ZM154.394 84L154.189 84.456L154.219 84.4695L154.25 84.4789L154.394 84ZM152.154 82.992L152.359 82.536L152.343 82.5286L152.326 82.5223L152.154 82.992ZM145.098 80.416L145.27 79.9463L145.263 79.9439L145.256 79.9417L145.098 80.416ZM140.394 78.848L140.552 78.3737L140.535 78.3678L140.517 78.3633L140.394 78.848ZM121.802 74.144L121.925 73.6593L121.908 73.6551L121.891 73.6521L121.802 74.144ZM119.338 73.696L119.427 73.2041L119.417 73.2022L119.407 73.2008L119.338 73.696ZM113.738 72.912L113.276 73.1036L113.386 73.3675L113.669 73.4072L113.738 72.912ZM113.718 72.864L114.18 72.6724L114.068 72.4023L113.778 72.3676L113.718 72.864ZM110.378 72.464L110.437 71.9676L110.408 71.964H110.378V72.464ZM100.746 72.464V71.964H100.724L100.703 71.9659L100.746 72.464ZM98.17 72.688L98.1267 72.1899L98.0853 72.1935L98.0451 72.2039L98.17 72.688ZM91.226 74.48L91.1011 73.9959L91.0843 74.0002L91.0679 74.0057L91.226 74.48ZM89.546 75.04L89.3879 74.5657L89.3664 74.5728L89.3456 74.5819L89.546 75.04ZM87.754 75.824L87.5536 75.3659L87.5182 75.3814L87.4856 75.4022L87.754 75.824ZM86.522 76.608L86.2536 76.1861L86.2447 76.192L86.522 76.608ZM85.178 77.504L84.9007 77.088L84.8294 77.1355L84.778 77.204L85.178 77.504ZM83.834 79.296L83.434 78.996L83.4029 79.0375L83.381 79.0846L83.834 79.296ZM83.05 80.976L82.597 80.7646L82.5848 80.7906L82.5757 80.8179L83.05 80.976ZM82.378 82.992L81.9037 82.8339L81.8913 82.8711L81.8848 82.9098L82.378 82.992ZM82.266 83.664L81.7728 83.5818L81.766 83.6226V83.664H82.266ZM82.266 86.8H81.766V86.858L81.7793 86.9145L82.266 86.8ZM82.7141 88.704L82.2273 88.8185L82.2343 88.8482L82.2449 88.8769L82.7141 88.704ZM83.498 90.832L83.0289 91.0049L83.0384 91.0308L83.0508 91.0556L83.498 90.832ZM84.394 92.624L83.9468 92.8476L83.9608 92.8754L83.978 92.9014L84.394 92.624ZM85.738 94.64L86.162 94.375L86.1581 94.3688L86.1541 94.3626L85.738 94.64ZM86.298 95.536H86.798V95.3926L86.722 95.271L86.298 95.536ZM86.298 95.76L86.3688 96.255L86.798 96.1937V95.76H86.298ZM85.514 95.872L85.5114 96.372L85.5483 96.3722L85.5848 96.367L85.514 95.872ZM64.122 95.76L63.637 95.8813L63.7312 96.258L64.1194 96.26L64.122 95.76ZM64.01 95.312L63.5286 95.1772L63.4928 95.3048L63.525 95.4333L64.01 95.312ZM64.794 92.512L65.2755 92.6468L65.279 92.6346L65.2818 92.6221L64.794 92.512ZM65.578 89.04L66.0658 89.1501L66.0702 89.1306L66.073 89.1107L65.578 89.04ZM66.138 85.12L66.633 85.1907L66.6341 85.183L66.635 85.1752L66.138 85.12ZM66.25 84.112L66.747 84.1672L66.75 84.1397V84.112H66.25ZM66.25 78.624H66.75V78.5991L66.7476 78.5742L66.25 78.624ZM66.026 76.384L66.5236 76.3343L66.5211 76.3099L66.5163 76.2859L66.026 76.384ZM65.578 74.144L66.0683 74.0459L66.0644 74.0261L66.0588 74.0066L65.578 74.144ZM64.458 70.224L64.9388 70.0866L64.9252 70.0388L64.9024 69.9947L64.458 70.224ZM62.666 66.752L63.1104 66.5227L63.0844 66.4723L63.0477 66.429L62.666 66.752ZM61.434 65.296L61.047 65.6127L61.0524 65.619L61.434 65.296ZM60.426 64.064L60.813 63.7474L60.7903 63.7196L60.7639 63.6954L60.426 64.064ZM59.082 62.832L59.4199 62.4634L59.4018 62.4468L59.382 62.432L59.082 62.832ZM57.29 61.488L57.59 61.088L57.571 61.0737L57.5508 61.0614L57.29 61.488ZM55.274 60.256L55.5348 59.8294L55.5125 59.8158L55.489 59.8046L55.274 60.256ZM52.922 59.136L53.137 58.6846L53.1093 58.6714L53.0802 58.6617L52.922 59.136ZM50.906 58.464L51.0642 57.9897L51.0526 57.9858L51.0409 57.9825L50.906 58.464ZM48.106 57.68L47.9352 58.1499L47.953 58.1564L47.9712 58.1615L48.106 57.68ZM46.874 57.232L47.0449 56.7621L46.9992 56.7455L46.9512 56.738L46.874 57.232ZM43.29 56.672L43.3672 56.178L43.3289 56.172H43.29V56.672ZM37.69 56.672V56.172H37.6576L37.6254 56.1762L37.69 56.672ZM35.114 57.008L35.0494 56.5122L35.0273 56.5151L35.0056 56.5199L35.114 57.008ZM32.09 57.68L31.9816 57.1919L31.967 57.1951L31.9527 57.1992L32.09 57.68ZM28.17 58.8L28.3049 59.2815L28.3074 59.2808L28.17 58.8ZM25.37 59.584L25.4655 60.0748L25.4854 60.0709L25.5049 60.0655L25.37 59.584ZM21.338 60.368L21.4088 60.863L21.4212 60.8612L21.4335 60.8588L21.338 60.368ZM18.202 60.816L18.2332 61.315L18.2531 61.3138L18.2728 61.311L18.202 60.816ZM16.41 60.928V61.428H16.4257L16.4412 61.427L16.41 60.928ZM15.178 60.928L15.1382 61.4264L15.1581 61.428H15.178V60.928ZM12.378 60.704L12.2568 61.1891L12.2969 61.1991L12.3382 61.2024L12.378 60.704ZM9.69004 60.032L9.49774 60.4935L9.53237 60.508L9.56878 60.5171L9.69004 60.032ZM8.34604 59.472L8.0687 59.888L8.10901 59.9149L8.15374 59.9335L8.34604 59.472ZM7.33804 58.8L6.85297 58.9213L6.89986 59.1088L7.06069 59.216L7.33804 58.8ZM7.22604 58.352L6.90065 57.9724L6.66603 58.1735L6.74097 58.4733L7.22604 58.352ZM8.01004 57.68L7.78644 57.2328L7.73138 57.2603L7.68465 57.3004L8.01004 57.68ZM9.35404 57.008L9.20491 56.5308L9.16646 56.5428L9.13044 56.5608L9.35404 57.008ZM11.146 56.448L11.0413 55.9591L11.0188 55.9639L10.9969 55.9708L11.146 56.448ZM14.282 55.776L14.2323 55.2785L14.2045 55.2813L14.1773 55.2871L14.282 55.776ZM15.402 55.664L15.4518 56.1615L15.902 56.1165V55.664H15.402ZM15.402 54.992H15.902V54.5354L15.4473 54.4941L15.402 54.992ZM14.17 54.88L14.2153 54.3821L14.1927 54.38H14.17V54.88ZM10.81 54.88V54.38H10.7745L10.7393 54.385L10.81 54.88ZM8.45804 55.216L8.38733 54.721L8.35873 54.7251L8.3308 54.7325L8.45804 55.216ZM6.33004 55.776L6.2028 55.2925L6.18443 55.2973L6.16649 55.3035L6.33004 55.776ZM3.41804 56.784L3.25449 56.3115L3.23578 56.318L3.21763 56.3259L3.41804 56.784ZM1.62604 57.568L1.42563 57.1099L1.42297 57.1111L1.62604 57.568ZM0.618044 58.016L0.496777 58.5011L0.663794 58.5428L0.821114 58.4729L0.618044 58.016ZM0.170044 57.904H-0.329956V58.2944L0.0487766 58.3891L0.170044 57.904ZM0.170044 56.448L-0.291495 56.2557L-0.329956 56.348V56.448H0.170044ZM0.730044 55.104L0.320428 54.8173L0.289349 54.8617L0.268505 54.9117L0.730044 55.104ZM1.51404 53.984L1.16049 53.6304L1.12953 53.6614L1.10443 53.6973L1.51404 53.984ZM3.08204 52.416L2.78204 52.016L2.75362 52.0373L2.72849 52.0624L3.08204 52.416ZM4.87404 51.072L4.61087 50.6469L4.59189 50.6586L4.57404 50.672L4.87404 51.072ZM7.22604 49.616L6.9921 49.1741L6.9772 49.182L6.96287 49.1909L7.22604 49.616ZM9.13004 48.608L8.94784 48.1424L8.9213 48.1528L8.8961 48.1661L9.13004 48.608ZM11.706 47.6L11.5806 47.116L11.5517 47.1235L11.5238 47.1344L11.706 47.6ZM14.73 46.816L14.632 46.3257L14.6182 46.3285L14.6046 46.332L14.73 46.816ZM17.53 46.256L17.4819 45.7583L17.4567 45.7608L17.432 45.7657L17.53 46.256ZM21.002 45.92V45.42H20.9779L20.9539 45.4223L21.002 45.92ZM27.162 45.92L27.1985 45.4213L27.1803 45.42H27.162V45.92ZM31.754 46.256L31.8176 45.7601L31.8041 45.7583L31.7905 45.7573L31.754 46.256ZM36.122 46.816L36.1993 46.3218L36.1856 46.3201L36.122 46.816ZM39.706 47.376L39.8065 46.8862L39.7949 46.8838L39.7832 46.882L39.706 47.376ZM44.074 48.272L44.1953 47.7869L44.185 47.7843L44.1745 47.7822L44.074 48.272ZM49.898 49.728L49.7767 50.2132L49.7872 50.2156L49.898 49.728ZM52.362 50.288L52.2512 50.7756L53.2082 50.9931L52.8216 50.091L52.362 50.288ZM52.026 49.504L52.4856 49.307L52.4196 49.153L52.2741 49.0699L52.026 49.504ZM50.458 48.608L50.1807 49.024L50.195 49.0336L50.21 49.0421L50.458 48.608ZM47.098 46.368L47.3754 45.9519L47.3676 45.9469L47.098 46.368ZM44.298 44.576L44.5676 44.1549L44.5615 44.151L44.5553 44.1473L44.298 44.576ZM42.058 43.232L42.3153 42.8032L42.3124 42.8015L42.058 43.232ZM39.594 41.776L39.8485 41.3455L39.8401 41.3407L39.594 41.776ZM37.018 40.32L37.2641 39.8847L37.253 39.8785L37.2417 39.8728L37.018 40.32ZM34.554 39.088L34.7777 38.6408L34.7561 38.63L34.7335 38.6213L34.554 39.088ZM31.642 37.968L31.8215 37.5013L31.7986 37.4925L31.775 37.486L31.642 37.968ZM28.394 37.072L28.527 36.59L28.5055 36.5841L28.4835 36.5801L28.394 37.072ZM25.93 36.624L26.0195 36.1321L25.9957 36.1277L25.9716 36.1257L25.93 36.624ZM23.242 36.4L23.2836 35.9015L23.2698 35.9008L23.242 36.4ZM21.226 36.288L21.2538 35.7886L21.2399 35.7882L21.226 36.288ZM17.194 36.176L17.1356 36.6726L17.1578 36.6752L17.1802 36.6758L17.194 36.176ZM15.29 35.952L15.1044 36.4162L15.1658 36.4408L15.2316 36.4486L15.29 35.952ZM13.61 35.28L13.3528 35.7087L13.3872 35.7294L13.4243 35.7442L13.61 35.28ZM12.49 34.608L12.1365 34.9616L12.18 35.0051L12.2328 35.0367L12.49 34.608ZM11.706 33.824L11.2773 34.0812L11.309 34.134L11.3525 34.1776L11.706 33.824ZM11.034 32.704L10.5533 32.8414L10.5714 32.9047L10.6053 32.9613L11.034 32.704ZM10.81 31.92H10.31V31.99L10.3293 32.0574L10.81 31.92ZM10.81 30.912L10.3458 30.7263L10.31 30.8157V30.912H10.81ZM11.258 29.792L10.8634 29.485L10.82 29.5408L10.7938 29.6063L11.258 29.792ZM12.042 28.784L11.7297 28.3936L11.6836 28.4304L11.6474 28.477L12.042 28.784ZM13.162 27.888L12.914 27.4539L12.8801 27.4732L12.8497 27.4976L13.162 27.888ZM14.73 26.992L14.5572 26.5228L14.5181 26.5372L14.482 26.5579L14.73 26.992ZM16.858 26.208L16.76 25.7177L16.7218 25.7254L16.6852 25.7388L16.858 26.208ZM19.098 25.76L19.0428 25.2631L19.0213 25.2655L19 25.2697L19.098 25.76ZM21.114 25.536V25.036H21.0864L21.0588 25.0391L21.114 25.536ZM24.474 25.536L24.5278 25.0389L24.501 25.036H24.474V25.536ZM28.618 25.984L28.7161 25.4937L28.6941 25.4893L28.6718 25.4869L28.618 25.984ZM30.858 26.432L30.988 25.9492L30.9722 25.9449L30.9561 25.9417L30.858 26.432ZM33.77 27.216L33.9409 26.7461L33.9208 26.7388L33.9 26.7332L33.77 27.216ZM36.234 28.112L36.4252 27.65L36.4152 27.6458L36.4049 27.6421L36.234 28.112ZM39.482 29.456L39.7057 29.0088L39.6897 29.0008L39.6732 28.994L39.482 29.456ZM42.17 30.8L42.435 30.376L42.4149 30.3634L42.3937 30.3528L42.17 30.8ZM43.962 31.92L44.2324 31.4994L44.227 31.496L43.962 31.92ZM45.53 32.928L45.8133 32.516L45.8069 32.5116L45.8004 32.5074L45.53 32.928ZM47.322 34.16L47.6258 33.7628L47.6157 33.7551L47.6053 33.748L47.322 34.16ZM49.226 35.616L49.5385 35.2255L49.5298 35.2188L49.226 35.616ZM50.346 36.512L50.6805 36.1404L50.6697 36.1306L50.6584 36.1216L50.346 36.512ZM51.466 37.52L51.1315 37.8917L51.1368 37.8963L51.466 37.52ZM52.362 38.304L52.6966 37.9323L52.6913 37.9277L52.362 38.304ZM53.482 39.312L53.8356 38.9584L53.8263 38.9491L53.8165 38.9404L53.482 39.312ZM54.266 40.096L53.9125 40.4496L53.9243 40.4613L53.9368 40.4723L54.266 40.096ZM55.162 40.88L55.5306 40.5421L55.512 40.5218L55.4913 40.5037L55.162 40.88ZM56.394 42.224L56.764 41.8877L56.7626 41.8861L56.394 42.224ZM57.514 43.456L57.914 43.156L57.8999 43.1371L57.884 43.1197L57.514 43.456ZM58.186 44.352L57.786 44.652L57.8798 44.777L58.0279 44.8263L58.186 44.352ZM58.858 44.576L58.6999 45.0503L59.564 45.3384L59.3431 44.4547L58.858 44.576ZM58.522 43.232L59.0071 43.1107L58.9985 43.0763L58.9851 43.0434L58.522 43.232ZM57.29 40.208L57.7531 40.0194L57.7481 40.0071L57.7425 39.9951L57.29 40.208ZM56.394 38.304L56.8465 38.0911L56.8385 38.0742L56.8293 38.058L56.394 38.304ZM54.938 35.728L55.3733 35.482L55.3722 35.4799L54.938 35.728ZM54.042 34.16L54.4762 33.9119L54.4658 33.8939L54.4541 33.8767L54.042 34.16ZM52.81 32.368L53.2221 32.0847L53.2162 32.0762L53.21 32.068L52.81 32.368ZM51.466 30.576L51.866 30.276L51.8563 30.263L51.8457 30.2506L51.466 30.576ZM50.122 29.008L50.5018 28.6825L50.4937 28.6735L50.122 29.008ZM49.114 27.888L48.7271 28.2046L48.7345 28.2137L48.7424 28.2225L49.114 27.888ZM47.098 25.424L46.682 25.7014L46.6956 25.7217L46.7111 25.7406L47.098 25.424ZM45.978 23.744L45.5344 23.9747L45.547 23.9988L45.562 24.0214L45.978 23.744ZM44.522 20.944L44.0578 21.1297L44.067 21.1527L44.0784 21.1747L44.522 20.944ZM43.626 18.704L43.1443 18.8378L43.1516 18.8642L43.1618 18.8897L43.626 18.704ZM43.066 16.688L42.5699 16.75L42.5745 16.7864L42.5843 16.8218L43.066 16.688ZM42.954 15.792H42.454V15.8231L42.4579 15.854L42.954 15.792ZM42.954 14.448L42.4651 14.3432L42.454 14.395V14.448H42.954ZM43.29 12.88L42.8511 12.6406L42.8164 12.7043L42.8011 12.7752L43.29 12.88ZM43.962 11.648L43.6085 11.2944L43.5576 11.3454L43.5231 11.4086L43.962 11.648ZM44.746 10.864L44.5224 10.4168L44.4499 10.4531L44.3925 10.5104L44.746 10.864ZM46.09 10.192L45.9688 9.70693L45.9155 9.72024L45.8664 9.74479L46.09 10.192ZM46.986 9.968V9.468H46.9245L46.8648 9.48293L46.986 9.968ZM49.45 9.968L49.5789 9.48488L49.5156 9.468H49.45V9.968ZM51.13 10.416L51.3537 9.96879L51.3081 9.94601L51.2589 9.93288L51.13 10.416ZM52.25 10.976L52.5274 10.56L52.5015 10.5427L52.4737 10.5288L52.25 10.976ZM53.594 11.872L53.9064 11.4816L53.8894 11.468L53.8714 11.456L53.594 11.872ZM54.714 12.768L55.0552 12.4025L55.0413 12.3895L55.0264 12.3776L54.714 12.768ZM56.394 14.336L56.764 13.9997L56.7502 13.9845L56.7352 13.9705L56.394 14.336ZM57.514 15.568L57.914 15.268L57.8999 15.2491L57.884 15.2317L57.514 15.568ZM58.858 17.36L59.2832 17.0968L59.2714 17.0779L59.258 17.06L58.858 17.36ZM60.314 19.712L60.7573 19.4807L60.7488 19.4644L60.7392 19.4488L60.314 19.712ZM61.658 22.288L62.1161 22.0876L62.1093 22.0719L62.1013 22.0567L61.658 22.288ZM63.226 25.872L63.6949 25.6983L63.6899 25.6848L63.6841 25.6716L63.226 25.872ZM64.346 28.896L64.8204 28.7379L64.8178 28.7301L64.8149 28.7223L64.346 28.896ZM65.242 31.584L65.724 31.451L65.7205 31.4384L65.7164 31.4259L65.242 31.584ZM66.138 34.832L66.624 34.7142L66.6221 34.7066L66.62 34.699L66.138 34.832ZM67.034 38.528L67.5272 38.4458L67.5243 38.4279L67.52 38.4102L67.034 38.528ZM67.37 40.544L67.8682 40.5007L67.8665 40.4811L67.8632 40.4618L67.37 40.544ZM67.594 43.12L67.0959 43.1633L67.1467 43.7472L67.7153 43.6051L67.594 43.12ZM68.042 43.008L68.1633 43.4931L68.3864 43.4373L68.4893 43.2316L68.042 43.008ZM68.826 41.44L69.2733 41.6636L69.2967 41.6168L69.3099 41.5662L68.826 41.44ZM69.498 38.864L69.9819 38.9902L69.9882 38.966L69.9921 38.9412L69.498 38.864ZM70.058 35.28L70.5521 35.3572L70.5556 35.3343L70.5571 35.3112L70.058 35.28ZM70.17 33.488L70.6691 33.5192L70.67 33.5036V33.488H70.17ZM70.17 27.328H70.67V27.3129L70.6691 27.2978L70.17 27.328ZM69.946 23.632L70.4451 23.6018L70.4445 23.591L70.4434 23.5802L69.946 23.632ZM69.386 18.256L69.8834 18.2042L69.8826 18.1968L69.8816 18.1894L69.386 18.256ZM68.378 10.752L68.8736 10.6854L68.873 10.6813L68.378 10.752ZM67.93 7.616L67.4325 7.66575L67.4336 7.67626L67.4351 7.68671L67.93 7.616ZM67.818 6.496H67.318V6.52094L67.3205 6.54575L67.818 6.496ZM67.818 4.48L67.3291 4.37524L67.318 4.42703V4.48H67.818ZM68.154 2.912L67.7068 2.68839L67.6784 2.74517L67.6651 2.80724L68.154 2.912ZM68.714 1.792L68.3424 1.45752L68.2971 1.50784L68.2668 1.56839L68.714 1.792ZM69.722 0.672L69.4984 0.224786L69.4137 0.267134L69.3504 0.337517L69.722 0.672ZM70.842 0.112L70.7208 -0.373071L70.6675 -0.359759L70.6184 -0.335214L70.842 0.112ZM89.2181 59.364L88.7192 59.331L88.7181 59.3475V59.364H89.2181ZM89.2181 60.364H88.7181V60.387L88.7203 60.41L89.2181 60.364ZM91.2181 64.864L90.9945 65.3112L91.0922 65.3601L91.2014 65.3637L91.2181 64.864ZM99.7181 65.1489L99.7332 64.6492L99.7014 65.6486L99.7181 65.1489ZM103.77 65.2714L103.813 64.7733L103.799 64.7721L103.785 64.7717L103.77 65.2714ZM94.698 73.584L94.5731 73.0999L94.5731 73.0999L94.698 73.584ZM89.9228 63.7383L89.4706 63.9518L89.9228 63.7383ZM90.837 64.6734L90.6134 65.1207L90.837 64.6734ZM89.3368 61.6497L88.8389 61.6957L89.3368 61.6497ZM89.8855 63.6594L90.3377 63.446L89.8855 63.6594ZM71.29 0V0.5H72.186V0V-0.5H71.29V0ZM72.186 0L72.0545 0.482382L73.2865 0.818382L73.418 0.336L73.5496 -0.146382L72.3176 -0.482382L72.186 0ZM73.418 0.336L73.1786 0.774948L74.4106 1.44695L74.65 1.008L74.8895 0.569052L73.6575 -0.102948L73.418 0.336ZM74.65 1.008L74.3109 1.3754L75.7669 2.7194L76.106 2.352L76.4452 1.9846L74.9892 0.640598L74.65 1.008ZM76.106 2.352L75.7156 2.66435L77.0596 4.34435L77.45 4.032L77.8405 3.71965L76.4965 2.03965L76.106 2.352ZM77.45 4.032L77.0234 4.29273L78.2554 6.30873L78.682 6.048L79.1087 5.78728L77.8767 3.77127L77.45 4.032ZM78.682 6.048L78.2402 6.28194L79.2482 8.18594L79.69 7.952L80.1319 7.71806L79.1239 5.81406L78.682 6.048ZM79.69 7.952L79.2247 8.13483L80.4567 11.2708L80.922 11.088L81.3874 10.9052L80.1554 7.76917L79.69 7.952ZM80.922 11.088L80.4453 11.2386L81.1173 13.3666L81.594 13.216L82.0708 13.0654L81.3988 10.9374L80.922 11.088ZM81.594 13.216L81.1046 13.318L81.6646 16.006L82.154 15.904L82.6435 15.802L82.0835 13.114L81.594 13.216ZM82.154 15.904L81.6584 15.9701L82.1064 19.3301L82.602 19.264L83.0977 19.1979L82.6497 15.8379L82.154 15.904ZM82.602 19.264H82.102V23.744H82.602H83.102V19.264H82.602ZM82.602 23.744L82.1051 23.6888L81.6571 27.7208L82.154 27.776L82.651 27.8312L83.099 23.7992L82.602 23.744ZM82.154 27.776L81.6624 27.685L81.1024 30.709L81.594 30.8L82.0857 30.891L82.6457 27.867L82.154 27.776ZM81.594 30.8L81.1112 30.67L80.3272 33.582L80.81 33.712L81.2929 33.842L82.0769 30.93L81.594 30.8ZM80.81 33.712L80.3357 33.5539L79.2157 36.9139L79.69 37.072L80.1644 37.2301L81.2844 33.8701L80.81 33.712ZM79.69 37.072L79.2258 36.8863L78.5538 38.5663L79.018 38.752L79.4823 38.9377L80.1543 37.2577L79.69 37.072ZM79.018 38.752L78.5373 38.6146L78.3133 39.3986L78.794 39.536L79.2748 39.6734L79.4988 38.8894L79.018 38.752ZM78.794 39.536L78.9797 40.0002L79.5397 39.7762L79.354 39.312L79.1684 38.8478L78.6083 39.0718L78.794 39.536ZM79.354 39.312L79.7609 39.6026L80.8809 38.0346L80.474 37.744L80.0672 37.4534L78.9472 39.0214L79.354 39.312ZM80.474 37.744L80.9059 37.9959L81.6899 36.6519L81.258 36.4L80.8262 36.1481L80.0422 37.4921L80.474 37.744ZM81.258 36.4L81.6786 36.6704L82.6866 35.1024L82.266 34.832L81.8455 34.5616L80.8375 36.1296L81.258 36.4ZM82.266 34.832L82.6948 35.0892L84.0388 32.8493L83.61 32.592L83.1813 32.3348L81.8373 34.5748L82.266 34.832ZM83.61 32.592L84.0428 32.8425L85.2748 30.7145L84.842 30.464L84.4093 30.2135L83.1773 32.3415L83.61 32.592ZM84.842 30.464L85.281 30.7034L86.625 28.2394L86.1861 28L85.7471 27.7606L84.4031 30.2246L84.842 30.464ZM86.1861 28L86.6396 28.2106L88.0955 25.0746L87.642 24.864L87.1885 24.6534L85.7325 27.7894L86.1861 28ZM87.642 24.864L88.1164 25.0221L88.7884 23.0061L88.314 22.848L87.8397 22.6899L87.1677 24.7059L87.642 24.864ZM88.314 22.848L88.8026 22.9542L89.3626 20.3782L88.874 20.272L88.3855 20.1658L87.8255 22.7418L88.314 22.848ZM88.874 20.272L89.371 20.3272L89.707 17.3032L89.21 17.248L88.7131 17.1928L88.3771 20.2168L88.874 20.272ZM89.21 17.248H89.71V13.328H89.21H88.71V17.248H89.21ZM89.21 13.328L89.7078 13.2806L89.0358 6.2246L88.538 6.272L88.0403 6.3194L88.7123 13.3754L89.21 13.328ZM88.538 6.272H89.038V5.264H88.538H88.038V6.272H88.538ZM88.538 5.264L89.0079 5.43487L89.4559 4.20287L88.986 4.032L88.5161 3.86113L88.0682 5.09313L88.538 5.264ZM88.986 4.032L89.3114 4.41163L90.0954 3.73963L89.7701 3.36L89.4447 2.98037L88.6607 3.65237L88.986 4.032ZM89.7701 3.36L89.9074 3.84076L90.6914 3.61676L90.554 3.136L90.4167 2.65524L89.6327 2.87924L89.7701 3.36ZM90.554 3.136L90.5088 3.63395L91.7408 3.74595L91.786 3.248L91.8313 2.75005L90.5993 2.63805L90.554 3.136ZM91.786 3.248L91.5624 3.69521L92.4584 4.14321L92.682 3.696L92.9057 3.24879L92.0097 2.80079L91.786 3.248ZM92.682 3.696L92.3285 4.04955L93.2245 4.94555L93.578 4.592L93.9316 4.23845L93.0356 3.34245L92.682 3.696ZM93.578 4.592L93.1471 4.84551L94.2671 6.74951L94.698 6.496L95.129 6.24249L94.009 4.33849L93.578 4.592ZM94.698 6.496L94.2365 6.68831L95.3565 9.37631L95.818 9.184L96.2796 8.99169L95.1596 6.30369L94.698 6.496ZM95.818 9.184L95.338 9.324L96.122 12.012L96.602 11.872L97.082 11.732L96.298 9.044L95.818 9.184ZM96.602 11.872L96.1126 11.974L96.6726 14.662L97.162 14.56L97.6515 14.458L97.0915 11.77L96.602 11.872ZM97.162 14.56L96.6666 14.627L97.2265 18.771L97.722 18.704L98.2175 18.637L97.6575 14.493L97.162 14.56ZM97.722 18.704L97.2238 18.7455L97.3358 20.0895L97.834 20.048L98.3323 20.0065L98.2203 18.6625L97.722 18.704ZM97.834 20.048H97.334V23.296H97.834H98.334V20.048H97.834ZM97.834 23.296L97.34 23.2188L96.78 26.8028L97.274 26.88L97.7681 26.9572L98.3281 23.3732L97.834 23.296ZM97.274 26.88L96.7917 26.7484L96.1197 29.2124L96.602 29.344L97.0844 29.4756L97.7564 27.0116L97.274 26.88ZM96.602 29.344L96.1339 29.1684L95.4619 30.9604L95.93 31.136L96.3982 31.3116L97.0702 29.5196L96.602 29.344ZM95.93 31.136L95.4755 30.9277L94.2435 33.6157L94.698 33.824L95.1526 34.0323L96.3846 31.3443L95.93 31.136ZM94.698 33.824L94.2591 33.5846L92.9151 36.0486L93.354 36.288L93.793 36.5274L95.137 34.0634L94.698 33.824ZM93.354 36.288L92.9313 36.021L91.5873 38.149L92.01 38.416L92.4328 38.683L93.7768 36.555L93.354 36.288ZM92.01 38.416L91.5882 38.1476L90.8042 39.3796L91.226 39.648L91.6479 39.9164L92.4319 38.6844L92.01 38.416ZM91.226 39.648L90.8156 39.3625L89.0236 41.9385L89.434 42.224L89.8445 42.5095L91.6365 39.9335L91.226 39.648ZM89.434 42.224L89.018 41.9467L88.122 43.2907L88.538 43.568L88.9541 43.8454L89.8501 42.5014L89.434 42.224ZM88.538 43.568L88.1643 43.2358L87.2683 44.2438L87.642 44.576L88.0157 44.9082L88.9118 43.9002L88.538 43.568ZM87.642 44.576L87.1778 44.3903L86.9538 44.9503L87.418 45.136L87.8823 45.3217L88.1063 44.7617L87.642 44.576ZM87.418 45.136L86.9708 45.3596L87.0828 45.5836L87.53 45.36L87.9773 45.1364L87.8653 44.9124L87.418 45.136ZM87.53 45.36L87.6008 45.855L88.3848 45.743L88.314 45.248L88.2433 44.753L87.4593 44.865L87.53 45.36ZM88.314 45.248L88.492 45.7152L90.844 44.8192L90.666 44.352L90.488 43.8848L88.1361 44.7808L88.314 45.248ZM90.666 44.352L90.8897 44.7992L92.6817 43.9032L92.458 43.456L92.2344 43.0088L90.4424 43.9048L90.666 44.352ZM92.458 43.456L92.7116 43.887L94.6156 42.767L94.362 42.336L94.1085 41.905L92.2045 43.025L92.458 43.456ZM94.362 42.336L94.662 42.736L96.902 41.056L96.602 40.656L96.302 40.256L94.062 41.936L94.362 42.336ZM96.602 40.656L96.9432 41.0215L98.6232 39.4535L98.282 39.088L97.9409 38.7225L96.2609 40.2905L96.602 40.656ZM98.282 39.088L98.6583 39.4173L99.4423 38.5213L99.066 38.192L98.6898 37.8627L97.9058 38.7587L98.282 39.088ZM99.066 38.192L99.4565 38.5043L100.8 36.8243L100.41 36.512L100.02 36.1997L98.6756 37.8797L99.066 38.192ZM100.41 36.512L100.814 36.8061L101.71 35.5741L101.306 35.28L100.902 34.9859L100.006 36.2179L100.41 36.512ZM101.306 35.28L101.693 35.5966L102.701 34.3646L102.314 34.048L101.927 33.7314L100.919 34.9634L101.306 35.28ZM102.314 34.048L102.649 34.4196L103.769 33.4116L103.434 33.04L103.1 32.6684L101.98 33.6764L102.314 34.048ZM103.434 33.04L103.658 33.4872L104.778 32.9272L104.554 32.48L104.33 32.0328L103.21 32.5928L103.434 33.04ZM104.554 32.48V32.98H105.45V32.48V31.98H104.554V32.48ZM105.45 32.48L105.226 32.9272L105.898 33.2632L106.122 32.816L106.346 32.3688L105.674 32.0328L105.45 32.48ZM106.122 32.816L105.768 33.1696L106.552 33.9536L106.906 33.6L107.26 33.2464L106.476 32.4624L106.122 32.816ZM106.906 33.6L106.449 33.8031L106.897 34.8111L107.354 34.608L107.811 34.4049L107.363 33.3969L106.906 33.6ZM107.354 34.608L106.861 34.6902L106.973 35.3622L107.466 35.28L107.959 35.1978L107.847 34.5258L107.354 34.608ZM107.466 35.28H106.966V37.296H107.466H107.966V35.28H107.466ZM107.466 37.296L106.981 37.1747L106.645 38.5187L107.13 38.64L107.615 38.7613L107.951 37.4173L107.466 37.296ZM107.13 38.64L106.672 38.4396L105.888 40.2316L106.346 40.432L106.804 40.6324L107.588 38.8404L107.13 38.64ZM106.346 40.432L105.922 40.167L104.802 41.959L105.226 42.224L105.65 42.489L106.77 40.697L106.346 40.432ZM105.226 42.224L104.848 41.8965L103.392 43.5765L103.77 43.904L104.148 44.2315L105.604 42.5515L105.226 42.224ZM103.77 43.904L103.416 43.5504L102.408 44.5584L102.762 44.912L103.116 45.2656L104.124 44.2576L103.77 43.904ZM102.762 44.912L102.433 44.5357L101.537 45.3197L101.866 45.696L102.195 46.0723L103.091 45.2883L102.762 44.912ZM101.866 45.696L101.549 45.309L100.317 46.317L100.634 46.704L100.951 47.091L102.183 46.083L101.866 45.696ZM100.634 46.704L100.362 46.2842L98.4584 47.5162L98.73 47.936L99.0017 48.3558L100.906 47.1238L100.634 46.704ZM98.73 47.936L98.4728 47.5073L96.7928 48.5153L97.05 48.944L97.3073 49.3727L98.9873 48.3647L98.73 47.936ZM97.05 48.944L96.8211 48.4995L93.1251 50.4035L93.354 50.848L93.583 51.2925L97.279 49.3885L97.05 48.944ZM93.354 50.848L93.0634 50.4411L91.4954 51.5611L91.786 51.968L92.0767 52.3749L93.6447 51.2549L93.354 50.848ZM91.786 51.968L91.4144 51.6335L90.4064 52.7535L90.778 53.088L91.1497 53.4225L92.1577 52.3025L91.786 51.968ZM90.778 53.088L90.3369 52.8527L89.4409 54.5327L89.882 54.768L90.3232 55.0033L91.2192 53.3233L90.778 53.088ZM89.882 54.768L89.3928 54.665L88.9448 56.793L89.434 56.896L89.9233 56.999L90.3713 54.871L89.882 54.768ZM89.434 56.896L88.9379 56.834L88.8259 57.73L89.322 57.792L89.8182 57.854L89.9302 56.958L89.434 56.896ZM110.49 65.856L110.405 66.3487L113.653 66.9087L113.738 66.416L113.823 65.9233L110.575 65.3633L110.49 65.856ZM113.738 66.416L113.656 66.9092L117.016 67.4692L117.098 66.976L117.18 66.4828L113.82 65.9228L113.738 66.416ZM117.098 66.976L116.973 67.46L119.997 68.244L120.122 67.76L120.248 67.276L117.224 66.492L117.098 66.976ZM120.122 67.76L120.001 68.2451L123.585 69.1411L123.706 68.656L123.827 68.1709L120.243 67.2749L120.122 67.76ZM123.706 68.656L123.569 69.1368L126.705 70.0328L126.842 69.552L126.979 69.0712L123.843 68.1752L123.706 68.656ZM126.842 69.552L126.675 70.0232L130.147 71.2552L130.314 70.784L130.481 70.3128L127.009 69.0808L126.842 69.552ZM130.314 70.784L130.156 71.2583L131.5 71.7063L131.658 71.232L131.816 70.7577L130.472 70.3097L130.314 70.784ZM131.658 71.232L131.484 71.7007L135.404 73.1567L135.578 72.688L135.752 72.2193L131.832 70.7633L131.658 71.232ZM135.578 72.688L135.377 73.1457L138.177 74.3777L138.378 73.92L138.579 73.4623L135.779 72.2303L135.578 72.688ZM138.378 73.92L138.145 74.3625L140.273 75.4825L140.506 75.04L140.739 74.5975L138.611 73.4775L138.378 73.92ZM140.506 75.04L140.297 75.4943L144.441 77.3983L144.65 76.944L144.859 76.4897L140.715 74.5857L140.506 75.04ZM144.65 76.944L144.35 77.344L144.798 77.68L145.098 77.28L145.398 76.88L144.95 76.544L144.65 76.944ZM145.098 77.28L144.848 77.7127L146.976 78.9447L147.226 78.512L147.477 78.0793L145.349 76.8473L145.098 77.28ZM147.226 78.512L146.963 78.9371L149.315 80.3931L149.578 79.968L149.841 79.5429L147.489 78.0869L147.226 78.512ZM149.578 79.968L149.31 80.3898L151.774 81.9578L152.042 81.536L152.31 81.1142L149.846 79.5462L149.578 79.968ZM152.042 81.536L151.754 81.9445L153.658 83.2885L153.946 82.88L154.234 82.4715L152.33 81.1275L152.042 81.536ZM153.946 82.88L153.639 83.2747L154.647 84.0587L154.954 83.664L155.261 83.2693L154.253 82.4853L153.946 82.88ZM154.954 83.664L154.642 84.0544L155.202 84.5024L155.514 84.112L155.826 83.7216L155.266 83.2736L154.954 83.664ZM155.514 84.112H155.014V84.336H155.514H156.014V84.112H155.514ZM155.514 84.336L155.658 83.8571L154.538 83.5211L154.394 84L154.25 84.4789L155.37 84.8149L155.514 84.336ZM154.394 84L154.599 83.544L152.359 82.536L152.154 82.992L151.949 83.448L154.189 84.456L154.394 84ZM152.154 82.992L152.326 82.5223L145.27 79.9463L145.098 80.416L144.927 80.8857L151.983 83.4617L152.154 82.992ZM145.098 80.416L145.256 79.9417L140.552 78.3737L140.394 78.848L140.236 79.3223L144.94 80.8903L145.098 80.416ZM140.394 78.848L140.517 78.3633L121.925 73.6593L121.802 74.144L121.679 74.6287L140.271 79.3327L140.394 78.848ZM121.802 74.144L121.891 73.6521L119.427 73.2041L119.338 73.696L119.249 74.1879L121.713 74.6359L121.802 74.144ZM119.338 73.696L119.407 73.2008L113.807 72.4168L113.738 72.912L113.669 73.4072L119.269 74.1912L119.338 73.696ZM113.738 72.912L114.2 72.7204L114.18 72.6724L113.718 72.864L113.256 73.0556L113.276 73.1036L113.738 72.912ZM113.718 72.864L113.778 72.3676L110.437 71.9676L110.378 72.464L110.319 72.9605L113.659 73.3605L113.718 72.864ZM110.378 72.464V71.964H100.746V72.464V72.964H110.378V72.464ZM100.746 72.464L100.703 71.9659L98.1267 72.1899L98.17 72.688L98.2134 73.1861L100.789 72.9621L100.746 72.464ZM91.226 74.48L91.0679 74.0057L89.3879 74.5657L89.546 75.04L89.7042 75.5143L91.3842 74.9543L91.226 74.48ZM89.546 75.04L89.3456 74.5819L87.5536 75.3659L87.754 75.824L87.9545 76.2821L89.7465 75.4981L89.546 75.04ZM87.754 75.824L87.4856 75.4022L86.2536 76.1862L86.522 76.608L86.7905 77.0298L88.0225 76.2458L87.754 75.824ZM86.522 76.608L86.2447 76.192L84.9007 77.088L85.178 77.504L85.4554 77.92L86.7994 77.024L86.522 76.608ZM85.178 77.504L84.778 77.204L83.434 78.996L83.834 79.296L84.234 79.596L85.578 77.804L85.178 77.504ZM83.834 79.296L83.381 79.0846L82.597 80.7646L83.05 80.976L83.5031 81.1874L84.2871 79.5074L83.834 79.296ZM83.05 80.976L82.5757 80.8179L81.9037 82.8339L82.378 82.992L82.8524 83.1501L83.5244 81.1341L83.05 80.976ZM82.378 82.992L81.8848 82.9098L81.7728 83.5818L82.266 83.664L82.7592 83.7462L82.8712 83.0742L82.378 82.992ZM82.266 83.664H81.766V86.8H82.266H82.766V83.664H82.266ZM82.266 86.8L81.7793 86.9145L82.2273 88.8185L82.7141 88.704L83.2008 88.5895L82.7528 86.6855L82.266 86.8ZM82.7141 88.704L82.2449 88.8769L83.0289 91.0049L83.498 90.832L83.9672 90.6591L83.1832 88.5312L82.7141 88.704ZM83.498 90.832L83.0508 91.0556L83.9468 92.8476L84.394 92.624L84.8413 92.4004L83.9453 90.6084L83.498 90.832ZM84.394 92.624L83.978 92.9014L85.322 94.9173L85.738 94.64L86.1541 94.3626L84.8101 92.3467L84.394 92.624ZM85.738 94.64L85.314 94.905L85.8741 95.801L86.298 95.536L86.722 95.271L86.162 94.375L85.738 94.64ZM86.298 95.536H85.798V95.76H86.298H86.798V95.536H86.298ZM86.298 95.76L86.2273 95.265L85.4433 95.377L85.514 95.872L85.5848 96.367L86.3688 96.255L86.298 95.76ZM85.514 95.872L85.5167 95.372L64.1247 95.26L64.122 95.76L64.1194 96.26L85.5114 96.372L85.514 95.872ZM64.122 95.76L64.6071 95.6387L64.4951 95.1907L64.01 95.312L63.525 95.4333L63.637 95.8813L64.122 95.76ZM64.01 95.312L64.4915 95.4468L65.2755 92.6468L64.794 92.512L64.3126 92.3772L63.5286 95.1772L64.01 95.312ZM64.794 92.512L65.2818 92.6221L66.0658 89.1501L65.578 89.04L65.0903 88.9299L64.3063 92.4019L64.794 92.512ZM65.578 89.04L66.073 89.1107L66.633 85.1907L66.138 85.12L65.6431 85.0493L65.0831 88.9693L65.578 89.04ZM66.138 85.12L66.635 85.1752L66.747 84.1672L66.25 84.112L65.7531 84.0568L65.6411 85.0648L66.138 85.12ZM66.25 84.112H66.75V78.624H66.25H65.75V84.112H66.25ZM66.25 78.624L66.7476 78.5742L66.5236 76.3343L66.026 76.384L65.5285 76.4338L65.7525 78.6738L66.25 78.624ZM66.026 76.384L66.5163 76.2859L66.0683 74.0459L65.578 74.144L65.0878 74.2421L65.5358 76.4821L66.026 76.384ZM65.578 74.144L66.0588 74.0066L64.9388 70.0866L64.458 70.224L63.9773 70.3614L65.0973 74.2814L65.578 74.144ZM64.458 70.224L64.9024 69.9947L63.1104 66.5227L62.666 66.752L62.2217 66.9813L64.0137 70.4533L64.458 70.224ZM62.666 66.752L63.0477 66.429L61.8157 64.973L61.434 65.296L61.0524 65.619L62.2844 67.075L62.666 66.752ZM61.434 65.296L61.821 64.9794L60.813 63.7474L60.426 64.064L60.0391 64.3806L61.0471 65.6126L61.434 65.296ZM60.426 64.064L60.7639 63.6954L59.4199 62.4634L59.082 62.832L58.7442 63.2006L60.0882 64.4326L60.426 64.064ZM59.082 62.832L59.382 62.432L57.59 61.088L57.29 61.488L56.99 61.888L58.782 63.232L59.082 62.832ZM57.29 61.488L57.5508 61.0614L55.5348 59.8294L55.274 60.256L55.0133 60.6826L57.0293 61.9146L57.29 61.488ZM55.274 60.256L55.489 59.8046L53.137 58.6846L52.922 59.136L52.7071 59.5874L55.0591 60.7074L55.274 60.256ZM52.922 59.136L53.0802 58.6617L51.0642 57.9897L50.906 58.464L50.7479 58.9383L52.7639 59.6103L52.922 59.136ZM50.906 58.464L51.0409 57.9825L48.2409 57.1985L48.106 57.68L47.9712 58.1615L50.7712 58.9455L50.906 58.464ZM48.106 57.68L48.2769 57.2101L47.0449 56.7621L46.874 57.232L46.7032 57.7019L47.9352 58.1499L48.106 57.68ZM46.874 57.232L46.9512 56.738L43.3672 56.178L43.29 56.672L43.2129 57.166L46.7969 57.726L46.874 57.232ZM43.29 56.672V56.172H37.69V56.672V57.172H43.29V56.672ZM37.69 56.672L37.6254 56.1762L35.0494 56.5122L35.114 57.008L35.1787 57.5038L37.7547 57.1678L37.69 56.672ZM35.114 57.008L35.0056 56.5199L31.9816 57.1919L32.09 57.68L32.1985 58.1681L35.2225 57.4961L35.114 57.008ZM32.09 57.68L31.9527 57.1992L28.0327 58.3192L28.17 58.8L28.3074 59.2808L32.2274 58.1608L32.09 57.68ZM28.17 58.8L28.0352 58.3185L25.2352 59.1025L25.37 59.584L25.5049 60.0655L28.3049 59.2815L28.17 58.8ZM25.37 59.584L25.2746 59.0932L21.2426 59.8772L21.338 60.368L21.4335 60.8588L25.4655 60.0748L25.37 59.584ZM21.338 60.368L21.2673 59.873L18.1313 60.321L18.202 60.816L18.2728 61.311L21.4088 60.863L21.338 60.368ZM18.202 60.816L18.1709 60.317L16.3789 60.429L16.41 60.928L16.4412 61.427L18.2332 61.315L18.202 60.816ZM16.41 60.928V60.428H15.178V60.928V61.428H16.41V60.928ZM15.178 60.928L15.2179 60.4296L12.4179 60.2056L12.378 60.704L12.3382 61.2024L15.1382 61.4264L15.178 60.928ZM12.378 60.704L12.4993 60.2189L9.81131 59.5469L9.69004 60.032L9.56878 60.5171L12.2568 61.1891L12.378 60.704ZM9.69004 60.032L9.88235 59.5705L8.53835 59.0105L8.34604 59.472L8.15374 59.9335L9.49774 60.4935L9.69004 60.032ZM8.34604 59.472L8.62339 59.056L7.61539 58.384L7.33804 58.8L7.06069 59.216L8.0687 59.888L8.34604 59.472ZM7.33804 58.8L7.82312 58.6787L7.71112 58.2307L7.22604 58.352L6.74097 58.4733L6.85297 58.9213L7.33804 58.8ZM7.22604 58.352L7.55144 58.7316L8.33544 58.0596L8.01004 57.68L7.68465 57.3004L6.90065 57.9724L7.22604 58.352ZM8.01004 57.68L8.23365 58.1272L9.57765 57.4552L9.35404 57.008L9.13044 56.5608L7.78644 57.2328L8.01004 57.68ZM9.35404 57.008L9.50318 57.4852L11.2952 56.9252L11.146 56.448L10.9969 55.9708L9.20491 56.5308L9.35404 57.008ZM11.146 56.448L11.2508 56.9369L14.3868 56.2649L14.282 55.776L14.1773 55.2871L11.0413 55.9591L11.146 56.448ZM14.282 55.776L14.3318 56.2735L15.4518 56.1615L15.402 55.664L15.3523 55.1665L14.2323 55.2785L14.282 55.776ZM15.402 55.664H15.902V54.992H15.402H14.902V55.664H15.402ZM15.402 54.992L15.4473 54.4941L14.2153 54.3821L14.17 54.88L14.1248 55.3779L15.3568 55.4899L15.402 54.992ZM14.17 54.88V54.38H10.81V54.88V55.38H14.17V54.88ZM10.81 54.88L10.7393 54.385L8.38733 54.721L8.45804 55.216L8.52876 55.711L10.8808 55.375L10.81 54.88ZM8.45804 55.216L8.3308 54.7325L6.2028 55.2925L6.33004 55.776L6.45729 56.2595L8.58529 55.6995L8.45804 55.216ZM6.33004 55.776L6.16649 55.3035L3.25449 56.3115L3.41804 56.784L3.5816 57.2565L6.4936 56.2485L6.33004 55.776ZM3.41804 56.784L3.21763 56.3259L1.42563 57.1099L1.62604 57.568L1.82645 58.0261L3.61845 57.2421L3.41804 56.784ZM1.62604 57.568L1.42297 57.1111L0.414974 57.5591L0.618044 58.016L0.821114 58.4729L1.82911 58.0249L1.62604 57.568ZM0.618044 58.016L0.739311 57.5309L0.291311 57.4189L0.170044 57.904L0.0487766 58.3891L0.496777 58.5011L0.618044 58.016ZM0.170044 57.904H0.670044V56.448H0.170044H-0.329956V57.904H0.170044ZM0.170044 56.448L0.631582 56.6403L1.19158 55.2963L0.730044 55.104L0.268505 54.9117L-0.291495 56.2557L0.170044 56.448ZM0.730044 55.104L1.13966 55.3907L1.92366 54.2707L1.51404 53.984L1.10443 53.6973L0.320428 54.8173L0.730044 55.104ZM1.51404 53.984L1.8676 54.3376L3.4356 52.7696L3.08204 52.416L2.72849 52.0624L1.16049 53.6304L1.51404 53.984ZM3.08204 52.416L3.38204 52.816L5.17404 51.472L4.87404 51.072L4.57404 50.672L2.78204 52.016L3.08204 52.416ZM4.87404 51.072L5.13722 51.4971L7.48922 50.0411L7.22604 49.616L6.96287 49.1909L4.61087 50.6469L4.87404 51.072ZM7.22604 49.616L7.45999 50.0579L9.36399 49.0499L9.13004 48.608L8.8961 48.1661L6.9921 49.1741L7.22604 49.616ZM9.13004 48.608L9.31224 49.0736L11.8882 48.0656L11.706 47.6L11.5238 47.1344L8.94784 48.1424L9.13004 48.608ZM11.706 47.6L11.8315 48.084L14.8555 47.3L14.73 46.816L14.6046 46.332L11.5806 47.116L11.706 47.6ZM14.73 46.816L14.8281 47.3063L17.6281 46.7463L17.53 46.256L17.432 45.7657L14.632 46.3257L14.73 46.816ZM17.53 46.256L17.5782 46.7537L21.0502 46.4177L21.002 45.92L20.9539 45.4223L17.4819 45.7583L17.53 46.256ZM21.002 45.92V46.42H27.162V45.92V45.42H21.002V45.92ZM27.162 45.92L27.1256 46.4187L31.7176 46.7547L31.754 46.256L31.7905 45.7573L27.1985 45.4213L27.162 45.92ZM31.754 46.256L31.6905 46.7519L36.0585 47.3119L36.122 46.816L36.1856 46.3201L31.8176 45.7601L31.754 46.256ZM36.122 46.816L36.0449 47.31L39.6289 47.87L39.706 47.376L39.7832 46.882L36.1992 46.322L36.122 46.816ZM39.706 47.376L39.6056 47.8658L43.9736 48.7618L44.074 48.272L44.1745 47.7822L39.8065 46.8862L39.706 47.376ZM44.074 48.272L43.9528 48.7571L49.7768 50.2131L49.898 49.728L50.0193 49.2429L44.1953 47.7869L44.074 48.272ZM49.898 49.728L49.7872 50.2156L52.2512 50.7756L52.362 50.288L52.4729 49.8004L50.0089 49.2404L49.898 49.728ZM52.362 50.288L52.8216 50.091L52.4856 49.307L52.026 49.504L51.5665 49.701L51.9025 50.485L52.362 50.288ZM52.026 49.504L52.2741 49.0699L50.7061 48.1739L50.458 48.608L50.21 49.0421L51.778 49.9381L52.026 49.504ZM50.458 48.608L50.7354 48.192L47.3754 45.952L47.098 46.368L46.8207 46.784L50.1807 49.024L50.458 48.608ZM47.098 46.368L47.3676 45.9469L44.5676 44.1549L44.298 44.576L44.0285 44.9971L46.8285 46.7891L47.098 46.368ZM44.298 44.576L44.5553 44.1473L42.3153 42.8033L42.058 43.232L41.8008 43.6607L44.0408 45.0047L44.298 44.576ZM42.058 43.232L42.3124 42.8015L39.8484 41.3455L39.594 41.776L39.3397 42.2065L41.8037 43.6625L42.058 43.232ZM39.594 41.776L39.8401 41.3407L37.2641 39.8847L37.018 40.32L36.772 40.7553L39.348 42.2113L39.594 41.776ZM37.018 40.32L37.2417 39.8728L34.7777 38.6408L34.554 39.088L34.3304 39.5352L36.7944 40.7672L37.018 40.32ZM34.554 39.088L34.7335 38.6213L31.8215 37.5013L31.642 37.968L31.4626 38.4347L34.3746 39.5547L34.554 39.088ZM31.642 37.968L31.775 37.486L28.527 36.59L28.394 37.072L28.2611 37.554L31.5091 38.45L31.642 37.968ZM28.394 37.072L28.4835 36.5801L26.0195 36.1321L25.93 36.624L25.8406 37.1159L28.3046 37.5639L28.394 37.072ZM25.93 36.624L25.9716 36.1257L23.2836 35.9017L23.242 36.4L23.2005 36.8983L25.8885 37.1223L25.93 36.624ZM23.242 36.4L23.2698 35.9008L21.2538 35.7888L21.226 36.288L21.1983 36.7872L23.2143 36.8992L23.242 36.4ZM21.226 36.288L21.2399 35.7882L17.2079 35.6762L17.194 36.176L17.1802 36.6758L21.2122 36.7878L21.226 36.288ZM17.194 36.176L17.2525 35.6794L15.3485 35.4554L15.29 35.952L15.2316 36.4486L17.1356 36.6726L17.194 36.176ZM15.29 35.952L15.4757 35.4878L13.7957 34.8158L13.61 35.28L13.4243 35.7442L15.1044 36.4162L15.29 35.952ZM13.61 35.28L13.8673 34.8513L12.7473 34.1793L12.49 34.608L12.2328 35.0367L13.3528 35.7087L13.61 35.28ZM12.49 34.608L12.8436 34.2544L12.0596 33.4704L11.706 33.824L11.3525 34.1776L12.1365 34.9616L12.49 34.608ZM11.706 33.824L12.1348 33.5668L11.4628 32.4468L11.034 32.704L10.6053 32.9613L11.2773 34.0812L11.706 33.824ZM11.034 32.704L11.5148 32.5666L11.2908 31.7826L10.81 31.92L10.3293 32.0574L10.5533 32.8414L11.034 32.704ZM10.81 31.92H11.31V30.912H10.81H10.31V31.92H10.81ZM10.81 30.912L11.2743 31.0977L11.7223 29.9777L11.258 29.792L10.7938 29.6063L10.3458 30.7263L10.81 30.912ZM11.258 29.792L11.6527 30.099L12.4367 29.091L12.042 28.784L11.6474 28.477L10.8634 29.485L11.258 29.792ZM12.042 28.784L12.3544 29.1744L13.4744 28.2784L13.162 27.888L12.8497 27.4976L11.7297 28.3936L12.042 28.784ZM13.162 27.888L13.4101 28.3221L14.9781 27.4261L14.73 26.992L14.482 26.5579L12.914 27.4539L13.162 27.888ZM14.73 26.992L14.9029 27.4612L17.0309 26.6772L16.858 26.208L16.6852 25.7388L14.5572 26.5228L14.73 26.992ZM16.858 26.208L16.9561 26.6983L19.1961 26.2503L19.098 25.76L19 25.2697L16.76 25.7177L16.858 26.208ZM19.098 25.76L19.1533 26.2569L21.1693 26.0329L21.114 25.536L21.0588 25.0391L19.0428 25.2631L19.098 25.76ZM21.114 25.536V26.036H24.474V25.536V25.036H21.114V25.536ZM24.474 25.536L24.4203 26.0331L28.5643 26.4811L28.618 25.984L28.6718 25.4869L24.5278 25.0389L24.474 25.536ZM28.618 25.984L28.52 26.4743L30.76 26.9223L30.858 26.432L30.9561 25.9417L28.7161 25.4937L28.618 25.984ZM30.858 26.432L30.7281 26.9148L33.6401 27.6988L33.77 27.216L33.9 26.7332L30.988 25.9492L30.858 26.432ZM33.77 27.216L33.5992 27.6859L36.0632 28.5819L36.234 28.112L36.4049 27.6421L33.9409 26.7461L33.77 27.216ZM36.234 28.112L36.0429 28.574L39.2909 29.918L39.482 29.456L39.6732 28.994L36.4252 27.65L36.234 28.112ZM39.482 29.456L39.2584 29.9032L41.9464 31.2472L42.17 30.8L42.3937 30.3528L39.7057 29.0088L39.482 29.456ZM42.17 30.8L41.905 31.224L43.697 32.344L43.962 31.92L44.227 31.496L42.435 30.376L42.17 30.8ZM43.962 31.92L43.6917 32.3406L45.2597 33.3486L45.53 32.928L45.8004 32.5074L44.2324 31.4994L43.962 31.92ZM45.53 32.928L45.2468 33.34L47.0388 34.572L47.322 34.16L47.6053 33.748L45.8133 32.516L45.53 32.928ZM47.322 34.16L47.0183 34.5572L48.9223 36.0132L49.226 35.616L49.5298 35.2188L47.6258 33.7628L47.322 34.16ZM49.226 35.616L48.9137 36.0064L50.0337 36.9024L50.346 36.512L50.6584 36.1216L49.5384 35.2256L49.226 35.616ZM50.346 36.512L50.0116 36.8836L51.1316 37.8916L51.466 37.52L51.8005 37.1484L50.6805 36.1404L50.346 36.512ZM51.466 37.52L51.1368 37.8963L52.0328 38.6803L52.362 38.304L52.6913 37.9277L51.7953 37.1437L51.466 37.52ZM52.362 38.304L52.0276 38.6756L53.1476 39.6836L53.482 39.312L53.8165 38.9404L52.6965 37.9324L52.362 38.304ZM53.482 39.312L53.1285 39.6656L53.9125 40.4496L54.266 40.096L54.6196 39.7424L53.8356 38.9584L53.482 39.312ZM54.266 40.096L53.9368 40.4723L54.8328 41.2563L55.162 40.88L55.4913 40.5037L54.5953 39.7197L54.266 40.096ZM55.162 40.88L54.7935 41.2179L56.0255 42.5619L56.394 42.224L56.7626 41.8861L55.5306 40.5421L55.162 40.88ZM56.394 42.224L56.0241 42.5603L57.1441 43.7923L57.514 43.456L57.884 43.1197L56.764 41.8877L56.394 42.224ZM57.514 43.456L57.114 43.756L57.786 44.652L58.186 44.352L58.586 44.052L57.914 43.156L57.514 43.456ZM58.186 44.352L58.0279 44.8263L58.6999 45.0503L58.858 44.576L59.0162 44.1017L58.3442 43.8777L58.186 44.352ZM58.858 44.576L59.3431 44.4547L59.0071 43.1107L58.522 43.232L58.037 43.3533L58.373 44.6973L58.858 44.576ZM58.522 43.232L58.9851 43.0434L57.7531 40.0194L57.29 40.208L56.827 40.3966L58.059 43.4207L58.522 43.232ZM57.29 40.208L57.7425 39.9951L56.8465 38.0911L56.394 38.304L55.9416 38.5169L56.8376 40.4209L57.29 40.208ZM56.394 38.304L56.8293 38.058L55.3733 35.482L54.938 35.728L54.5028 35.974L55.9588 38.55L56.394 38.304ZM54.938 35.728L55.3722 35.4799L54.4762 33.9119L54.042 34.16L53.6079 34.4081L54.5039 35.9761L54.938 35.728ZM54.042 34.16L54.4541 33.8767L53.2221 32.0847L52.81 32.368L52.398 32.6513L53.63 34.4433L54.042 34.16ZM52.81 32.368L53.21 32.068L51.866 30.276L51.466 30.576L51.066 30.876L52.41 32.668L52.81 32.368ZM51.466 30.576L51.8457 30.2506L50.5017 28.6826L50.122 29.008L49.7424 29.3334L51.0864 30.9014L51.466 30.576ZM50.122 29.008L50.4937 28.6735L49.4857 27.5535L49.114 27.888L48.7424 28.2225L49.7504 29.3425L50.122 29.008ZM49.114 27.888L49.501 27.5714L47.485 25.1074L47.098 25.424L46.7111 25.7406L48.7271 28.2046L49.114 27.888ZM47.098 25.424L47.5141 25.1467L46.3941 23.4667L45.978 23.744L45.562 24.0214L46.682 25.7014L47.098 25.424ZM45.978 23.744L46.4217 23.5133L44.9657 20.7133L44.522 20.944L44.0784 21.1747L45.5344 23.9747L45.978 23.744ZM44.522 20.944L44.9863 20.7583L44.0903 18.5183L43.626 18.704L43.1618 18.8897L44.0578 21.1297L44.522 20.944ZM43.626 18.704L44.1078 18.5702L43.5478 16.5542L43.066 16.688L42.5843 16.8218L43.1443 18.8378L43.626 18.704ZM43.066 16.688L43.5622 16.626L43.4502 15.73L42.954 15.792L42.4579 15.854L42.5699 16.75L43.066 16.688ZM42.954 15.792H43.454V14.448H42.954H42.454V15.792H42.954ZM42.954 14.448L43.4429 14.5528L43.7789 12.9848L43.29 12.88L42.8011 12.7752L42.4651 14.3432L42.954 14.448ZM43.29 12.88L43.729 13.1194L44.401 11.8874L43.962 11.648L43.5231 11.4086L42.8511 12.6406L43.29 12.88ZM43.962 11.648L44.3156 12.0016L45.0996 11.2176L44.746 10.864L44.3925 10.5104L43.6085 11.2944L43.962 11.648ZM44.746 10.864L44.9697 11.3112L46.3137 10.6392L46.09 10.192L45.8664 9.74479L44.5224 10.4168L44.746 10.864ZM46.09 10.192L46.2113 10.6771L47.1073 10.4531L46.986 9.968L46.8648 9.48293L45.9688 9.70693L46.09 10.192ZM46.986 9.968V10.468H49.45V9.968V9.468H46.986V9.968ZM49.45 9.968L49.3212 10.4511L51.0012 10.8991L51.13 10.416L51.2589 9.93288L49.5789 9.48488L49.45 9.968ZM51.13 10.416L50.9064 10.8632L52.0264 11.4232L52.25 10.976L52.4737 10.5288L51.3537 9.96879L51.13 10.416ZM52.25 10.976L51.9727 11.392L53.3167 12.288L53.594 11.872L53.8714 11.456L52.5274 10.56L52.25 10.976ZM53.594 11.872L53.2817 12.2624L54.4017 13.1584L54.714 12.768L55.0264 12.3776L53.9064 11.4816L53.594 11.872ZM54.714 12.768L54.3729 13.1335L56.0529 14.7015L56.394 14.336L56.7352 13.9705L55.0552 12.4025L54.714 12.768ZM56.394 14.336L56.0241 14.6723L57.1441 15.9043L57.514 15.568L57.884 15.2317L56.764 13.9997L56.394 14.336ZM57.514 15.568L57.114 15.868L58.458 17.66L58.858 17.36L59.258 17.06L57.914 15.268L57.514 15.568ZM58.858 17.36L58.4329 17.6232L59.8889 19.9752L60.314 19.712L60.7392 19.4488L59.2832 17.0968L58.858 17.36ZM60.314 19.712L59.8708 19.9433L61.2148 22.5193L61.658 22.288L62.1013 22.0567L60.7573 19.4807L60.314 19.712ZM61.658 22.288L61.2 22.4884L62.768 26.0724L63.226 25.872L63.6841 25.6716L62.1161 22.0876L61.658 22.288ZM63.226 25.872L62.7572 26.0457L63.8772 29.0697L64.346 28.896L64.8149 28.7223L63.6949 25.6983L63.226 25.872ZM64.346 28.896L63.8717 29.0541L64.7677 31.7421L65.242 31.584L65.7164 31.4259L64.8204 28.7379L64.346 28.896ZM65.242 31.584L64.76 31.717L65.6561 34.965L66.138 34.832L66.62 34.699L65.724 31.451L65.242 31.584ZM66.138 34.832L65.6521 34.9498L66.5481 38.6458L67.034 38.528L67.52 38.4102L66.624 34.7142L66.138 34.832ZM67.034 38.528L66.5408 38.6102L66.8769 40.6262L67.37 40.544L67.8632 40.4618L67.5272 38.4458L67.034 38.528ZM67.37 40.544L66.8719 40.5873L67.0959 43.1633L67.594 43.12L68.0922 43.0767L67.8682 40.5007L67.37 40.544ZM67.594 43.12L67.7153 43.6051L68.1633 43.4931L68.042 43.008L67.9208 42.5229L67.4728 42.6349L67.594 43.12ZM68.042 43.008L68.4893 43.2316L69.2733 41.6636L68.826 41.44L68.3788 41.2164L67.5948 42.7844L68.042 43.008ZM68.826 41.44L69.3099 41.5662L69.9819 38.9902L69.498 38.864L69.0142 38.7378L68.3422 41.3138L68.826 41.44ZM69.498 38.864L69.9921 38.9412L70.5521 35.3572L70.058 35.28L69.564 35.2028L69.004 38.7868L69.498 38.864ZM70.058 35.28L70.5571 35.3112L70.6691 33.5192L70.17 33.488L69.671 33.4568L69.559 35.2488L70.058 35.28ZM70.17 33.488H70.67V27.328H70.17H69.67V33.488H70.17ZM70.17 27.328L70.6691 27.2978L70.4451 23.6018L69.946 23.632L69.447 23.6622L69.671 27.3582L70.17 27.328ZM69.946 23.632L70.4434 23.5802L69.8834 18.2042L69.386 18.256L68.8887 18.3078L69.4487 23.6838L69.946 23.632ZM69.386 18.256L69.8816 18.1894L68.8736 10.6854L68.378 10.752L67.8825 10.8186L68.8905 18.3226L69.386 18.256ZM68.378 10.752L68.873 10.6813L68.425 7.54529L67.93 7.616L67.4351 7.68671L67.8831 10.8227L68.378 10.752ZM67.93 7.616L68.4276 7.56625L68.3156 6.44625L67.818 6.496L67.3205 6.54575L67.4325 7.66575L67.93 7.616ZM67.818 6.496H68.318V4.48H67.818H67.318V6.496H67.818ZM67.818 4.48L68.3069 4.58476L68.6429 3.01676L68.154 2.912L67.6651 2.80724L67.3291 4.37524L67.818 4.48ZM68.154 2.912L68.6013 3.13561L69.1613 2.01561L68.714 1.792L68.2668 1.56839L67.7068 2.68839L68.154 2.912ZM68.714 1.792L69.0857 2.12648L70.0937 1.00648L69.722 0.672L69.3504 0.337517L68.3424 1.45752L68.714 1.792ZM69.722 0.672L69.9457 1.11921L71.0657 0.559214L70.842 0.112L70.6184 -0.335214L69.4984 0.224786L69.722 0.672ZM70.842 0.112L70.9633 0.597071L71.4113 0.485071L71.29 0L71.1688 -0.485071L70.7208 -0.373071L70.842 0.112ZM89.322 57.792L88.8231 57.759L88.7192 59.331L89.2181 59.364L89.7171 59.397L89.821 57.825L89.322 57.792ZM89.2181 59.364H88.7181V60.364H89.2181H89.7181V59.364H89.2181ZM99.7181 65.1489L99.7014 65.6486L104.089 65.7957L104.106 65.296L104.123 64.7963L99.7349 64.6492L99.7181 65.1489ZM110.49 65.856L110.533 65.3579L103.813 64.7733L103.77 65.2714L103.727 65.7695L110.447 66.3541L110.49 65.856ZM103.77 65.2714L103.785 64.7717L99.7332 64.6492L99.7181 65.1489L99.703 65.6487L103.755 65.7712L103.77 65.2714ZM91.2181 64.864L91.2014 65.3637L104.089 65.7957L104.106 65.296L104.123 64.7963L91.2349 64.3643L91.2181 64.864ZM89.2181 60.364L88.7203 60.41L88.8389 61.6957L89.3368 61.6497L89.8347 61.6037L89.716 60.3181L89.2181 60.364ZM89.8855 63.6594L89.4334 63.8728L89.4706 63.9518L89.9228 63.7383L90.3749 63.5249L90.3377 63.446L89.8855 63.6594ZM90.837 64.6734L90.6134 65.1207L90.9945 65.3112L91.2181 64.864L91.4417 64.4168L91.0606 64.2262L90.837 64.6734ZM98.17 72.688L98.0451 72.2039L94.5731 73.0999L94.698 73.584L94.823 74.0681L98.295 73.1721L98.17 72.688ZM94.698 73.584L94.5731 73.0999L91.1011 73.9959L91.226 74.48L91.351 74.9641L94.823 74.0681L94.698 73.584ZM89.9228 63.7383L89.4706 63.9518C89.7098 64.4584 90.1122 64.8701 90.6134 65.1207L90.837 64.6734L91.0606 64.2262C90.7599 64.0759 90.5184 63.8289 90.3749 63.5249L89.9228 63.7383ZM89.3368 61.6497L88.8389 61.6957C88.9086 62.4505 89.1098 63.1873 89.4334 63.8728L89.8855 63.6594L90.3377 63.446C90.0639 62.8659 89.8937 62.2425 89.8347 61.6037L89.3368 61.6497Z" fill="black" mask="url(#path-1-inside-1_108_43)"/>
<path d="M80.1383 56.224H81.0343L81.8183 56.672L82.6023 57.344L82.7143 57.68V59.024L82.0423 60.368L81.2583 61.488L80.0263 63.392L79.6903 63.952L79.4663 64.064L77.8983 63.952L77.7863 63.392L78.4583 62.496L79.2423 61.152L79.4663 60.816V60.256L78.9063 59.696L78.5703 59.136V57.568L78.9063 57.008L79.9143 56.336L80.1383 56.224Z" fill="#FEFEFE"/>
</svg>
