<svg width="67" height="67" viewBox="0 0 67 67" fill="none" xmlns="http://www.w3.org/2000/svg">
<path d="M51.5516 0H15.4483C6.91646 0 0 6.91646 0 15.4483V51.5516C0 60.0835 6.91646 67 15.4483 67H51.5516C60.0835 67 67 60.0835 67 51.5516V15.4483C67 6.91646 60.0835 0 51.5516 0Z" fill="url(#paint0_linear_62_463)"/>
<path d="M44.305 13.218C46.8485 13.2283 49.2849 14.2432 51.0834 16.0417C52.8819 17.8402 53.8968 20.2766 53.9071 22.8201V44.1796C53.8968 46.723 52.8819 49.1594 51.0834 50.9579C49.2849 52.7565 46.8485 53.7714 44.305 53.7816H22.6949C20.1514 53.7714 17.715 52.7565 15.9165 50.9579C14.118 49.1594 13.103 46.723 13.0928 44.1796V22.8201C13.103 20.2766 14.118 17.8402 15.9165 16.0417C17.715 14.2432 20.1514 13.2283 22.6949 13.218H44.305ZM44.305 8.75193H22.6949C14.957 8.75193 8.62524 15.0909 8.62524 22.8216V44.1796C8.62524 51.9174 14.9642 58.2492 22.6949 58.2492H44.305C52.0428 58.2492 58.3746 51.9102 58.3746 44.1796V22.8201C58.3746 15.0823 52.0428 8.75049 44.305 8.75049V8.75193Z" fill="white"/>
<path d="M33.5001 25.1629C35.149 25.1629 36.7609 25.6518 38.1319 26.5679C39.503 27.484 40.5716 28.7861 41.2026 30.3095C41.8336 31.833 41.9987 33.5093 41.677 35.1266C41.3554 36.7438 40.5613 38.2293 39.3953 39.3953C38.2294 40.5613 36.7438 41.3553 35.1266 41.677C33.5093 41.9987 31.833 41.8336 30.3096 41.2026C28.7861 40.5716 27.484 39.503 26.5679 38.1319C25.6518 36.7609 25.1629 35.149 25.1629 33.5C25.1655 31.2897 26.0448 29.1707 27.6077 27.6077C29.1707 26.0448 31.2897 25.1655 33.5001 25.1629ZM33.5001 20.6968C30.9678 20.6968 28.4924 21.4477 26.3869 22.8545C24.2815 24.2614 22.6404 26.261 21.6714 28.6004C20.7023 30.9399 20.4488 33.5143 20.9428 35.9978C21.4368 38.4814 22.6562 40.7628 24.4468 42.5533C26.2373 44.3439 28.5187 45.5633 31.0023 46.0573C33.4859 46.5513 36.0602 46.2978 38.3997 45.3287C40.7391 44.3597 42.7387 42.7187 44.1456 40.6132C45.5524 38.5077 46.3033 36.0323 46.3033 33.5C46.3033 30.1044 44.9544 26.8478 42.5533 24.4468C40.1523 22.0457 36.8957 20.6968 33.5001 20.6968Z" fill="white"/>
<path d="M46.5826 23.1704C48.2591 23.1704 49.6181 21.8113 49.6181 20.1349C49.6181 18.4584 48.2591 17.0994 46.5826 17.0994C44.9062 17.0994 43.5471 18.4584 43.5471 20.1349C43.5471 21.8113 44.9062 23.1704 46.5826 23.1704Z" fill="white"/>
<defs>
<linearGradient id="paint0_linear_62_463" x1="55.4149" y1="66.9604" x2="5.59848" y2="-7.65734" gradientUnits="userSpaceOnUse">
<stop stop-color="#FFDB73"/>
<stop offset="0.08" stop-color="#FDAD4E"/>
<stop offset="0.15" stop-color="#FB832E"/>
<stop offset="0.19" stop-color="#FA7321"/>
<stop offset="0.23" stop-color="#F6692F"/>
<stop offset="0.37" stop-color="#E84A5A"/>
<stop offset="0.48" stop-color="#E03675"/>
<stop offset="0.55" stop-color="#DD2F7F"/>
<stop offset="0.68" stop-color="#B43D97"/>
</linearGradient>
</defs>
</svg>
