<svg width="209" height="97" viewBox="0 0 209 97" fill="none" xmlns="http://www.w3.org/2000/svg">
<g clip-path="url(#clip0_62_363)">
<path d="M72.0722 0.135986H72.9681L74.2001 0.471986L75.4322 1.14399L76.8882 2.48799L78.2321 4.16799L79.4641 6.18399L80.4722 8.08799L81.7041 11.224L82.3762 13.352L82.9361 16.04L83.3841 19.4V23.88L82.9361 27.912L82.3762 30.936L81.5921 33.848L80.4722 37.208L79.8001 38.888L79.5761 39.672L80.1362 39.448L81.2561 37.88L82.0402 36.536L83.0481 34.968L84.3922 32.728L85.6242 30.6L86.9682 28.136L88.4241 25L89.0962 22.984L89.6562 20.408L89.9921 17.384V13.464L89.3202 6.40799V5.39999L89.7682 4.16799L90.5522 3.49599L91.3362 3.27199L92.5682 3.38399L93.4641 3.83199L94.3602 4.72799L95.4801 6.63199L96.6002 9.31999L97.3841 12.008L97.9442 14.696L98.5042 18.84L98.6161 20.184V23.432L98.0562 27.016L97.3841 29.48L96.7122 31.272L95.4801 33.96L94.1362 36.424L92.7922 38.552L92.0081 39.784L90.2161 42.36L89.3202 43.704L88.4241 44.712L88.2001 45.272L88.3121 45.496L89.0962 45.384L91.4482 44.488L93.2402 43.592L95.1441 42.472L97.3841 40.792L99.0641 39.224L99.8482 38.328L101.192 36.648L102.088 35.416L103.096 34.184L104.216 33.176L105.336 32.616H106.232L106.904 32.952L107.688 33.736L108.136 34.744L108.248 35.416V37.432L107.912 38.776L107.128 40.568L106.008 42.36L104.552 44.04L103.544 45.048L102.648 45.832L101.416 46.84L99.5122 48.072L97.8322 49.08L94.1362 50.984L92.5682 52.104L91.5602 53.224L90.6642 54.904L90.2161 57.032L90.1041 57.928L92.5682 57.368L94.9202 57.144H114.184L114.632 57.368V62.408L114.52 66.552L117.88 67.112L120.904 67.896L121.016 66.44L121.464 64.312L122.024 62.968L122.808 61.736L123.816 60.616L124.936 59.608L126.504 58.6L128.408 57.704L130.312 57.144L132.328 56.808L133.448 56.696H138.152L140.168 56.92L142.072 57.368L143.864 58.04L145.768 59.048L147.112 60.28L148.008 61.288L149.016 62.968L148.904 63.528H145.992L144.312 61.848L142.632 60.84L141.624 60.392L139.496 59.832L137.032 59.608H134.68L132.104 59.832L129.752 60.504L128.184 61.288L126.728 62.408L125.608 63.528L124.824 64.76L124.264 66.552L124.152 67.112V68.456L124.488 68.792L127.624 69.688L131.096 70.92L132.44 71.368L136.36 72.824L139.16 74.056L141.288 75.176L141.96 75.288L143.752 74.392L145.432 73.048L145.88 72.6L146.104 72.488H147.896L149.128 72.6L148.904 73.16L147.896 74.728L147.336 75.4L146.44 76.184L145.432 77.08L145.88 77.416L148.008 78.648L150.36 80.104L152.824 81.672L154.728 83.016L155.736 83.8L156.296 84.248V84.472L155.176 84.136L152.936 83.128L145.88 80.552L141.176 78.984L140.504 78.872L136.584 79.096L132.664 78.984L130.872 78.76L128.856 78.2L126.28 76.968L124.376 75.624L123.144 74.616L122.584 74.28L120.12 73.832L115.08 73.16L114.52 73.048L114.632 78.536L114.408 78.648H111.496L111.272 78.536L111.16 77.752V72.6H101.528L98.9521 72.824L98.3922 73.16L96.8242 74.392L95.4801 75.624L94.3602 76.632L93.1282 77.64L92.2322 78.424L92.0081 78.536H87.9762L88.2001 78.088L89.0962 77.192L90.3281 76.184L91.4482 75.288H91.6721L92.0081 74.616L90.3281 75.176L88.5361 75.96L87.3042 76.744L85.9602 77.64L84.6161 79.432L83.8322 81.112L83.1601 83.128L83.0481 83.8V86.936L83.4962 88.84L84.2802 90.968L85.1761 92.76L86.5201 94.776L87.0802 95.672V95.896L86.2962 96.008L64.9042 95.896L64.7921 95.448L65.5761 92.648L66.3602 89.176L66.9202 85.256L67.0322 84.248V78.76L66.8082 76.52L66.3602 74.28L65.2402 70.36L64.6801 70.92L63.5602 73.272L62.5522 75.064L61.4322 77.416L60.7602 78.424L59.9762 78.536L55.7201 78.424L55.1601 78.088L54.6002 77.192L52.9202 74.168L50.9041 70.248L49.5602 67.784L48.1041 65.208L47.4321 63.864L47.0961 63.752V78.424L46.9841 78.536H43.9602L43.8481 76.408V66.328L43.9602 57.48L44.0722 56.808H38.4721L35.8961 57.144L32.8721 57.816L28.9521 58.936L26.1521 59.72L22.1201 60.504L18.9841 60.952L17.1921 61.064H15.9601L13.1601 60.84L10.4721 60.168L9.12815 59.608L8.12015 58.936L8.00815 58.488L8.79215 57.816L10.1361 57.144L11.9281 56.584L15.0641 55.912L16.1841 55.8V55.128L14.9521 55.016H11.5921L9.24015 55.352L7.11215 55.912L4.20015 56.92L2.40815 57.704L1.40015 58.152L0.952148 58.04V56.584L1.51215 55.24L2.29615 54.12L3.86415 52.552L5.65615 51.208L8.00815 49.752L9.91215 48.744L12.4881 47.736L15.5121 46.952L18.3121 46.392L21.7841 46.056H27.9441L32.5361 46.392L36.9041 46.952L40.4882 47.512L44.8562 48.408L50.6801 49.864L53.1441 50.424L52.8082 49.64L51.2402 48.744L47.8801 46.504L45.0802 44.712L42.8401 43.368L40.3761 41.912L37.8001 40.456L35.3362 39.224L32.4241 38.104L29.1761 37.208L26.7121 36.76L24.0241 36.536L22.0081 36.424L17.9761 36.312L16.0721 36.088L14.3921 35.416L13.2721 34.744L12.4881 33.96L11.8161 32.84L11.5921 32.056V31.048L12.0401 29.928L12.8241 28.92L13.9441 28.024L15.5121 27.128L17.6401 26.344L19.8801 25.896L21.8961 25.672H25.2561L29.4001 26.12L31.6402 26.568L34.5522 27.352L37.0162 28.248L40.2641 29.592L42.9521 30.936L44.7441 32.056L46.3121 33.064L48.1041 34.296L50.0081 35.752L51.1282 36.648L52.2481 37.656L53.1441 38.44L54.2641 39.448L55.0481 40.232L55.9441 41.016L57.1762 42.36L58.2962 43.592L58.9682 44.488L59.6402 44.712L59.3041 43.368L58.0722 40.344L57.1762 38.44L55.7201 35.864L54.8242 34.296L53.5922 32.504L52.2481 30.712L50.9041 29.144L49.8961 28.024L47.8801 25.56L46.7602 23.88L45.3041 21.08L44.4081 18.84L43.8481 16.824L43.7361 15.928V14.584L44.0722 13.016L44.7441 11.784L45.5281 11L46.8722 10.328L47.7682 10.104H50.2322L51.9122 10.552L53.0322 11.112L54.3761 12.008L55.4962 12.904L57.1762 14.472L58.2962 15.704L59.6402 17.496L61.0961 19.848L62.4402 22.424L64.0082 26.008L65.1282 29.032L66.0241 31.72L66.9202 34.968L67.8161 38.664L68.1522 40.68L68.3762 43.256L68.8242 43.144L69.6082 41.576L70.2802 39L70.8401 35.416L70.9521 33.624V27.464L70.7281 23.768L70.1682 18.392L69.1601 10.888L68.7122 7.75199L68.6002 6.63199V4.61599L68.9361 3.04799L69.4961 1.92799L70.5042 0.807986L71.6242 0.247986L72.0722 0.135986ZM47.3201 57.368L47.5442 57.928L49.1121 60.84L50.2322 62.968L51.9122 66.104L53.2561 68.68L55.1601 72.376L56.1682 74.28L56.8401 75.512L57.4002 76.072L57.6241 76.184H58.5201L59.0802 75.736L60.5362 73.048L61.4322 71.368L62.5522 69.24L63.4482 67.448V66.888L62.2162 65.432L61.2081 64.2L59.8642 62.968L58.0722 61.624L56.0561 60.392L53.7042 59.272L51.6881 58.6L48.8881 57.816L47.6562 57.368H47.3201ZM93.8001 59.832L92.2322 60.168L91.3362 60.616L90.7762 61.176L90.6642 61.848L91.3362 63.64L92.0081 64.984L100.296 65.096L104.888 65.432L110.264 65.992H111.272V63.976L111.16 59.944L111.048 59.832H93.8001Z" fill="#FBA520"/>
<path d="M133.448 56.696H138.152L140.168 56.92L142.072 57.368L143.864 58.04L145.768 59.048L147.112 60.28L148.008 61.288L149.016 62.968L148.904 63.528H145.992L144.312 61.848L142.632 60.84L141.624 60.392L139.496 59.832L137.032 59.608H134.68L132.104 59.832L129.752 60.504L128.184 61.288L126.728 62.408L125.608 63.528L124.824 64.76L124.264 66.552L124.152 67.112V68.456L124.488 68.792L127.624 69.688L131.096 70.92L132.44 71.368L136.36 72.824L139.16 74.056L141.288 75.176L141.96 75.288L143.752 74.392L145.432 73.048L145.88 72.6L146.104 72.488H147.896L149.128 72.6L148.904 73.16L147.896 74.728L147.336 75.4L146.44 76.184L145.432 77.08L145.88 77.416L148.008 78.648L150.36 80.104L152.824 81.672L154.728 83.016L155.736 83.8L156.296 84.248V84.472L155.176 84.136L152.936 83.128L145.88 80.552L141.176 78.984L140.504 78.872L136.584 79.096L132.664 78.984L130.872 78.76L128.856 78.2L126.28 76.968L124.376 75.624L123.144 74.616L122.584 74.28L120.12 73.832L115.08 73.16L114.52 73.048L114.632 78.536L114.408 78.648H111.496L111.272 78.536L111.16 77.752V72.6H101.528L98.9519 72.824L98.3919 73.16L96.8239 74.392L95.4799 75.624L94.3599 76.632L93.1279 77.64L92.2319 78.424L92.0079 78.536H87.9759L88.1999 78.088L89.0959 77.192L90.3279 76.184L91.4479 75.288H91.6719L91.8959 74.84L93.1279 73.72L94.6959 72.488L96.1519 71.256H96.3759L96.2639 71.032L92.1199 70.808L90.5519 70.36L89.2079 69.688L88.0879 68.792L87.1919 67.784L86.5199 66.216L86.2959 65.432V63.416L86.7439 61.736L87.1919 60.728L87.6399 60.056L88.9839 58.712L90.4399 57.816L93.3519 57.256L94.9199 57.144H114.184L114.632 57.368V62.408L114.52 66.552L117.88 67.112L120.904 67.896L121.016 66.44L121.464 64.312L122.024 62.968L122.808 61.736L123.816 60.616L124.936 59.608L126.504 58.6L128.408 57.704L130.312 57.144L132.328 56.808L133.448 56.696ZM93.7999 59.832L92.2319 60.168L91.3359 60.616L90.7759 61.176L90.6639 61.848L91.3359 63.64L92.0079 64.984L100.296 65.096L104.888 65.432L110.264 65.992H111.272V63.976L111.16 59.944L111.048 59.832H93.7999Z" fill="#FEFEFE"/>
<path d="M133.448 56.696H138.152L140.168 56.92L142.072 57.368L143.864 58.04L145.768 59.048L147.112 60.28L148.008 61.288L149.016 62.968L148.904 63.528H145.992L144.312 61.848L142.632 60.84L141.624 60.392L139.496 59.832L137.032 59.608H134.68L132.104 59.832L129.752 60.504L128.184 61.288L126.728 62.408L125.608 63.528L124.824 64.76L124.264 66.552L124.152 67.112V68.456L124.488 68.792L127.624 69.688L131.096 70.92L132.44 71.368L136.36 72.824L139.16 74.056L141.288 75.176L141.96 75.288L143.752 74.392L145.432 73.048L145.88 72.6L146.104 72.488H147.896L149.128 72.6L148.904 73.16L147.896 74.728L147.336 75.4L146.44 76.184L145.432 77.08L145.88 77.416L148.008 78.648L150.36 80.104L152.824 81.672L154.728 83.016L155.736 83.8L156.296 84.248V84.472L155.176 84.136L152.936 83.128L145.88 80.552L141.176 78.984L140.504 78.872L136.584 79.096L132.664 78.984L130.872 78.76L128.856 78.2L126.28 76.968L124.376 75.624L123.144 74.616L122.584 74.28L120.12 73.832L115.08 73.16L114.632 73.048L114.52 70.36V68.232L114.632 66.664L116.088 66.776L118.776 67.336L120.904 67.896L121.016 66.44L121.464 64.312L122.024 62.968L122.808 61.736L123.816 60.616L124.936 59.608L126.504 58.6L128.408 57.704L130.312 57.144L132.328 56.808L133.448 56.696Z" fill="#FEFEFE"/>
<path d="M44.0717 57.032L47.2077 57.144L47.4317 57.368L47.6557 57.928L49.2237 60.84L50.3437 62.968L52.0237 66.104L53.3677 68.68L55.2717 72.376L56.2797 74.28L56.9517 75.512L57.3997 75.96L57.6237 76.072H58.5197L59.0797 75.512L60.4237 73.048L61.3197 71.368L62.4397 69.24L63.3357 67.448L63.6717 66.44L64.3437 65.32L66.0237 62.184L67.1437 60.056L68.2637 58.04L68.7117 57.144H71.8477L72.0717 57.48V78.424L71.7357 78.648H69.3837L68.8237 78.424L68.7117 77.752V64.312L68.1517 64.872L65.3517 69.912L64.4557 71.368L63.5597 73.272L62.5517 75.064L61.4317 77.416L60.7597 78.424L59.9757 78.536L55.7197 78.424L55.1597 78.088L54.5997 77.192L52.9197 74.168L50.9037 70.248L49.5597 67.784L48.1037 65.208L47.4317 63.864L47.0957 63.752V78.424L46.9837 78.536H43.9597L43.8477 76.408V66.328L43.9597 57.48L44.0717 57.032Z" fill="#FEFEFE"/>
<path d="M193.48 56.584H194.712L197.624 56.808L199.864 57.256L201.656 57.928L203.672 59.048L205.24 60.28L206.36 61.512L207.144 62.744L207.816 64.088L208.152 65.32L208.376 66.776V69.128L208.04 71.032L207.48 72.488L206.584 73.944L205.576 75.176L204.344 76.184L202.776 77.192L200.984 78.088L198.072 78.872L196.728 78.984H191.912L190.232 78.872L187.88 78.2L185.528 77.08L184.184 76.184L182.84 74.952L182.056 74.056L180.936 72.04L180.376 70.248L180.264 69.688V66.104L180.824 63.976L181.72 62.184L182.616 61.064L184.072 59.608L185.192 58.824L187.096 57.816L189.112 57.144L190.792 56.808L193.48 56.584ZM193.368 59.496L191.016 59.72L189.112 60.28L187.32 61.176L185.976 62.184L185.08 63.08L184.072 64.648L183.512 66.216L183.4 67.112V68.904L183.736 70.472L184.52 72.04L186.088 73.72L187.768 74.84L189.112 75.512L191.24 76.072L192.808 76.296H196.056L198.296 75.848L199.976 75.288L201.544 74.392L202.664 73.496L203.336 72.824V72.6H203.56L204.456 71.144L205.016 69.688L205.24 68.344L205.128 66.552L204.568 64.872L203.784 63.528L202.776 62.408L201.768 61.512L200.088 60.504L198.408 59.944L196.616 59.608L195.272 59.496H193.368Z" fill="#FEFEFE"/>
<path d="M155.512 57.144H158.536L158.648 57.256V66.216H164.92L166.376 64.76L167.16 63.864L168.504 62.408L169.512 61.288L170.744 59.944L171.64 58.824L173.096 57.256L173.32 57.144H177.128L176.456 57.928L175.448 59.16L174.664 59.944L173.88 60.84L172.648 62.184L171.08 63.864L170.296 64.76L168.952 66.216L167.944 67.336L167.72 67.672L167.832 68.232L169.176 69.8L170.744 71.48L171.976 72.824L173.992 75.064L174.776 75.96L176.232 77.528L176.792 78.312V78.536H173.432L172.536 77.752L170.856 76.072L170.072 75.176L168.28 73.272L166.264 71.032L165.256 69.8L164.92 69.576H158.648L158.536 78.536H155.512L155.4 75.96V57.256L155.512 57.144Z" fill="#FEFEFE"/>
<path d="M90.5519 61.736L90.7759 61.848L91.4479 63.64L92.0079 64.872L100.296 64.984L104.888 65.32L111.048 65.992L111.16 66.104V68.12L98.0559 68.232H95.2559L93.2399 68.12L92.0079 67.784L90.7759 67L89.9919 66.216L89.5439 65.208V63.304L89.9919 62.296L90.5519 61.736Z" fill="#FBA520"/>
<path d="M124.152 68.792L125.272 69.016L127.96 69.8L131.096 70.92L132.44 71.368L136.36 72.824L139.16 74.056L141.288 75.176L141.624 75.288V75.512L138.936 76.072L137.144 76.296H134.904L132.552 76.072L130.2 75.512L128.408 74.728L126.616 73.384L125.608 72.264L124.712 70.808L124.152 69.24V68.792Z" fill="#FBA520"/>
<path d="M114.632 66.6639L116.088 66.7759L118.776 67.3359L120.68 67.8959L120.904 68.0079L121.24 70.4719L121.8 72.2639L122.696 74.0559L122.584 74.2799L120.12 73.8319L115.08 73.1599L114.632 73.0479L114.52 70.3599V68.2319L114.632 66.6639Z" fill="#FBA520"/>
<path d="M145.208 77.08L146.888 77.976L149.464 79.544L151.592 80.888L153.944 82.456L155.624 83.688L156.296 84.248V84.472L155.176 84.136L152.936 83.128L145.88 80.552L141.176 78.984L140.952 78.76L141.624 78.424L143.528 77.864L144.872 77.304L145.208 77.08Z" fill="#FBA522"/>
<path d="M110.264 87.272H111.384L111.608 87.384V95.224L112.056 95.336L112.168 97.128L112.056 97.24H111.272L111.16 97.128V96.232H108.248L108.136 97.016L107.8 97.24L107.24 97.128L107.128 96.792V95.672L107.352 95.336H107.576L107.688 87.608L107.912 87.384L110.264 87.272ZM108.808 88.168L108.696 88.504V95.224L108.808 95.336H110.488V88.28L110.376 88.168H108.808Z" fill="#FEFEFE"/>
<path d="M135.464 87.272H138.488L138.6 87.384L138.712 95.112L139.048 95.336V97.24H138.376L138.152 96.68V96.12L135.352 96.232L135.128 97.24H134.232L134.12 95.448L134.792 95.224V88.168L135.016 87.384L135.464 87.272ZM135.912 88.168L135.8 88.28V95.224L135.912 95.336H137.48L137.592 88.28L137.144 88.168H135.912Z" fill="#FEFEFE"/>
<path d="M143.976 87.16L144.312 87.272V96.12H143.528L143.416 96.008L143.192 91.192L141.736 95.448L141.512 96.12H140.616L140.504 96.008L140.392 88.952L140.504 87.272H141.512L141.624 87.384L141.736 92.312L142.744 89.288L143.304 87.384L143.976 87.16Z" fill="#FEFEFE"/>
<path d="M124.824 87.272H127.512L127.624 87.384L127.736 95.112L128.184 95.448V96.68L128.072 97.24H127.4L127.176 97.016V96.232H124.264L124.04 97.24H123.48L123.256 96.68V95.448L123.704 95.336L123.816 87.944L124.04 87.384L124.824 87.272ZM124.936 88.168L124.712 88.28V95.336H126.616V88.28L126.392 88.168H124.936Z" fill="#FEFEFE"/>
<path d="M129.976 87.272H132.44L133 87.496L133.224 87.944V95.448L133 96.008L132.44 96.12H129.64L129.304 95.896L129.192 94.552V88.28L129.416 87.384L129.976 87.272ZM130.424 88.168L130.312 88.28V95.224L130.424 95.336H131.88L132.104 95.224V88.28L131.544 88.168H130.424Z" fill="#FEFEFE"/>
<path d="M153.16 87.272H156.408L156.856 87.496V90.968L156.408 91.08L156.52 91.752L156.968 92.2V95.784L156.744 96.008L156.184 96.12H153.272L153.16 95.896V87.272ZM154.28 88.168L154.168 88.28V91.192L155.736 91.08L155.848 90.408V88.28L155.512 88.168H154.28ZM154.168 92.088V95.224H155.96V92.2L155.736 92.088H154.168Z" fill="#FEFEFE"/>
<path d="M80.9204 56.36H81.8164L82.6004 56.808L83.3844 57.48L83.4964 57.816V59.16L82.8244 60.504L82.0404 61.624L80.8084 63.528L80.4724 64.088L80.2484 64.2L78.6804 64.088L78.5684 63.528L79.2404 62.632L80.0244 61.288L80.2484 60.952V60.392L79.6884 59.832L79.3524 59.272V57.704L79.6884 57.144L80.6964 56.472L80.9204 56.36Z" fill="#FEFEFE"/>
<path d="M99.3998 87.272L102.536 87.384L102.872 87.608L102.984 88.28V89.96L102.872 90.856L102.648 91.192H102.424L102.648 91.864L102.984 92.312V95.784L102.76 96.008L102.312 96.12H99.3998L99.2878 96.008L99.1758 87.384L99.3998 87.272ZM100.296 88.168L100.184 88.28V91.08L100.296 91.192L101.752 91.08L101.864 90.968L101.976 88.392L101.416 88.168H100.296ZM100.184 92.088V95.224L100.408 95.336H101.64L101.976 95.224V92.2L101.864 92.088H100.184Z" fill="#FEFEFE"/>
<path d="M145.768 87.272H146.664L146.776 87.384L146.888 90.408L147.56 89.4L148.568 87.384L148.792 87.272H149.688L149.8 87.496L148.68 89.4L147.672 91.304L147.784 92.088L149.128 94.328L149.912 95.784L149.8 96.12H149.016L148.456 95.56L147 92.872L146.888 92.76L146.664 96.12H145.88L145.768 96.008V87.272Z" fill="#FEFEFE"/>
<path d="M100.856 70.92H111.16V72.6H101.528L99.064 72.712L99.736 71.928L100.408 71.368L100.856 70.92Z" fill="#FBA520"/>
<path d="M118.328 87.272L119.336 87.384L119.56 87.944L120.12 90.856L120.456 91.864L121.016 89.848L121.576 87.496L122.024 87.272H122.584L122.696 87.496L121.352 92.872L120.792 95.224L120.344 95.896L119.896 96.12H119L118.664 95.896L118.776 95.448L119.672 95.112L119.784 94.888V93.768L119.224 91.416L118.44 88.28L118.328 87.272Z" fill="#FEFEFE"/>
<path d="M151.032 87.272H152.04L152.152 87.384V91.64L152.04 96.008L151.928 96.12H151.032L150.92 95.224V87.496L151.032 87.272Z" fill="#FEFEFE"/>
<path d="M104.664 87.384H105.672L105.784 87.72L105.672 96.12H104.776L104.664 96.008V87.384Z" fill="#FEFEFE"/>
</g>
<defs>
<clipPath id="clip0_62_363">
<rect width="209" height="97" fill="white"/>
</clipPath>
</defs>
</svg>
