<svg width="67" height="67" viewBox="0 0 67 67" fill="none" xmlns="http://www.w3.org/2000/svg">
<path d="M23.8296 34.7301C18.5167 34.7301 14.2245 39.0223 14.3031 44.2828C14.3554 47.659 16.2136 50.5902 18.9486 52.226C18.0195 50.7996 17.4699 49.1115 17.4437 47.2926C17.3652 42.032 21.6574 37.7398 26.9703 37.7398C28.0171 37.7398 29.0247 37.91 29.9669 38.2109V27.6768C28.9855 27.5328 27.9779 27.4543 26.9703 27.4543H26.8263V35.2012C25.8841 34.9002 24.8765 34.7301 23.8296 34.7301ZM46.7954 3.14062H43.9951C44.7802 7.07949 46.9917 10.508 50.08 12.8373C48.0517 10.1547 46.8216 6.80469 46.7954 3.14062Z" fill="#F00044"/>
<path d="M62.8126 19.1709C61.7788 19.1709 60.7842 19.0663 59.8028 18.8831V26.4336C56.2434 26.4336 52.7887 25.7401 49.5434 24.353C47.4497 23.4631 45.4999 22.3247 43.7071 20.9506L43.7594 44.2305C43.7333 49.4649 41.6657 54.3721 37.9231 58.0754C34.8741 61.0852 31.0137 63.0088 26.8262 63.6239C25.8448 63.7678 24.8372 63.8463 23.8295 63.8463C19.3542 63.8463 15.0881 62.3938 11.6204 59.7112C12.0129 60.1823 12.4317 60.6403 12.8897 61.0852C16.6584 64.8016 21.6573 66.8561 26.9833 66.8561C27.9909 66.8561 28.9985 66.7776 29.9799 66.6336C34.1674 66.0186 38.0278 64.095 41.0768 61.0852C44.8194 57.3819 46.887 52.4747 46.9131 47.2403L46.7169 23.9604C48.4965 25.3344 50.4463 26.486 52.5532 27.3627C55.8116 28.7368 59.2663 29.4434 62.8126 29.4434" fill="#F00044"/>
<path d="M12.8505 33.2515C16.58 29.5481 21.5396 27.4937 26.8263 27.4544V24.6671C25.8448 24.5231 24.8372 24.4446 23.8296 24.4446C18.4905 24.4446 13.4786 26.4991 9.70987 30.2417C6.00655 33.9188 3.88663 38.9438 3.89972 44.1651C3.89972 49.4257 5.98038 54.3591 9.73605 58.0886C10.338 58.6774 10.953 59.227 11.6073 59.7243C8.64991 56.2042 7.04034 51.8073 7.02726 47.1749C7.04034 41.9536 9.14718 36.9286 12.8505 33.2515ZM59.8028 18.8831V16.0827H59.7767C56.1388 16.0827 52.7888 14.8788 50.0931 12.8374C52.4355 15.9257 55.864 18.1241 59.8028 18.8831Z" fill="#08FFF9"/>
<path d="M26.4336 56.5574C27.6768 56.6228 28.8676 56.4527 29.9668 56.0994C33.7618 54.8562 36.4967 51.323 36.4967 47.1617L36.5098 31.5894V3.14062H43.995C43.7987 2.15918 43.694 1.16465 43.6809 0.130859H33.3692V28.5666L33.3561 44.1389C33.3561 48.3002 30.6211 51.8334 26.8262 53.0766C25.727 53.443 24.5362 53.6131 23.293 53.5346C21.7096 53.443 20.2309 52.9719 18.9485 52.2129C20.5581 54.6992 23.3061 56.3873 26.4336 56.5574Z" fill="#08FFF9"/>
<path d="M26.8263 63.6238C31.0138 63.0088 34.8741 61.0852 37.9232 58.0754C41.6657 54.3721 43.7333 49.4648 43.7595 44.2305L43.7071 20.9506C45.4868 22.3246 47.4366 23.4762 49.5435 24.3529C52.8019 25.727 56.2566 26.4336 59.8028 26.4336V18.883C55.864 18.124 52.4355 15.9256 50.0931 12.8373C47.0048 10.508 44.7802 7.07949 44.0081 3.14062H36.5099V31.5764L36.4968 47.1486C36.4968 51.31 33.7618 54.8432 29.9669 56.0863C28.8677 56.4527 27.6769 56.6229 26.4337 56.5443C23.2931 56.3742 20.5581 54.6861 18.9485 52.2129C16.2136 50.5902 14.3554 47.6459 14.303 44.2697C14.2245 39.0092 18.5167 34.717 23.8296 34.717C24.8765 34.717 25.8841 34.8871 26.8263 35.1881V27.4412C21.5396 27.4805 16.58 29.535 12.8505 33.2383C9.14718 36.9154 7.02726 41.9404 7.04034 47.1486C7.04034 51.7811 8.64991 56.1779 11.6204 59.6981C15.1013 62.3807 19.3542 63.8332 23.8296 63.8332C24.8372 63.8463 25.8448 63.7678 26.8263 63.6238Z" fill="black"/>
</svg>
