<svg width="62" height="69" viewBox="0 0 62 69" fill="none" xmlns="http://www.w3.org/2000/svg">
<path d="M61.0808 39.792C63.0797 22.9666 60.1205 12.3443 54.7828 7.53983L54.7856 7.53704C46.1705 -0.667668 17.0758 -1.88204 6.76896 7.90554C2.14038 12.6932 0.510047 19.7199 0.33138 28.4187C0.152713 37.1203 -0.0594533 53.4209 15.13 57.8429H15.144L15.13 64.5959C15.13 64.5959 15.0267 67.3317 16.7743 67.8817C18.7731 68.5294 19.6776 67.2592 25.8947 59.8333C36.2908 60.735 44.275 58.6692 45.1823 58.3677C47.2816 57.6642 59.1602 56.0925 61.0808 39.792ZM26.9192 55.0819C26.9192 55.0819 20.3393 63.2866 18.293 65.4167C17.623 66.109 16.8888 66.0448 16.8999 64.6713C16.8999 63.7696 16.9502 53.46 16.9502 53.46C4.07221 49.7694 4.83155 35.8892 4.97113 28.6281C5.11071 21.3642 6.43955 15.4151 10.359 11.4091C19.4013 2.93079 44.9087 4.82633 51.4077 10.9345C59.3528 17.9779 56.5248 37.8769 56.5416 38.5552C54.9085 52.1618 45.2828 53.0245 43.5129 53.6135C42.7563 53.8647 35.7353 55.671 26.9192 55.0819Z" fill="#C970E1"/>
<path d="M30.5595 13.0032C29.4847 13.0032 29.4847 14.6782 30.5595 14.6921C38.8982 14.7563 45.7657 20.5686 45.8411 31.23C45.8411 32.355 47.4882 32.3411 47.4742 31.216C47.3849 19.7283 39.8837 13.0674 30.5595 13.0032Z" fill="#C970E1"/>
<path d="M41.528 29.4629C41.5028 30.574 43.1471 30.627 43.1611 29.502C43.2979 23.1677 39.3923 17.9501 32.0531 17.4001C30.9783 17.322 30.8666 19.0109 31.9386 19.0891C38.3036 19.572 41.6564 23.9159 41.528 29.4629ZM39.7692 36.6682C38.3901 35.8698 36.9859 36.3667 36.4053 37.1512L35.1909 38.7229C34.5739 39.5213 33.421 39.4152 33.421 39.4152C25.0069 37.1902 22.7568 28.3853 22.7568 28.3853C22.7568 28.3853 22.6535 27.1933 23.424 26.554L24.9427 25.2977C25.702 24.6947 26.1822 23.2431 25.4089 21.8165C23.3431 18.0841 21.9556 16.7971 21.2493 15.8089C20.5067 14.8792 19.3901 14.6699 18.2287 15.298H18.2036C15.7888 16.7106 13.1451 19.3543 13.991 22.0762C15.4343 24.946 18.0863 34.0943 26.5395 41.0065C30.5121 44.2755 36.7989 47.6255 39.4677 48.3988L39.4928 48.4379C42.1226 49.3144 44.6798 46.5674 46.0449 44.0801V44.0605C46.6507 42.8573 46.4497 41.7183 45.5647 40.9729C43.9958 39.4431 41.6285 37.7542 39.7692 36.6682Z" fill="#C970E1"/>
<path d="M33.2032 23.6309C35.886 23.7873 37.1869 25.1887 37.3265 28.0669C37.3768 29.1919 39.0099 29.1138 38.9596 27.9887C38.781 24.2311 36.8212 22.1374 33.2925 21.942C32.2178 21.8778 32.1173 23.5667 33.2032 23.6309Z" fill="#C970E1"/>
</svg>
